<svg aria-hidden="true" style="position: absolute; width: 0; height: 0; overflow: hidden;" version="1.1" xmlns="http://www.w3.org/2000/svg" xmlns:xlink="http://www.w3.org/1999/xlink">
<defs>
<symbol id="icon-logo4" viewBox="0 0 32 32">
<path fill="#2196f3" style="fill: var(--color1, #2196f3)" d="M7.275 13.011c-0.725 0-1.298 0.513-1.298 1.177 0 0.634 0.604 1.147 1.298 1.147 0.725 0 1.328-0.513 1.328-1.147 0-0.664-0.604-1.177-1.328-1.177zM16.966 12.951c0-0.906-0.392-1.751-1.117-2.415-0.694-0.604-1.66-0.966-2.687-0.966-0.996 0-1.962 0.362-2.687 0.996-0.694 0.604-1.087 1.509-1.087 2.385v4.921s7.547-0.755 7.547-4.921zM3.321 19.472c0 0.634 0.302 1.208 0.785 1.66 0.491 0.427 1.135 0.69 1.841 0.694h0.001c0.725 0 1.389-0.241 1.872-0.694 0.465-0.397 0.764-0.977 0.785-1.627l0-0.004v-3.442s-5.283 0.513-5.283 3.411zM5.947 20.075c-0.121 0-0.272 0-0.362-0.091-0.121-0.060-0.211-0.151-0.272-0.272-0.030-0.091-0.060-0.241-0.030-0.332 0-0.121 0.091-0.241 0.181-0.302 0.091-0.121 0.242-0.181 0.362-0.181h0.392c0.121 0.060 0.242 0.151 0.302 0.241 0.079 0.098 0.127 0.223 0.127 0.36 0 0.168-0.072 0.319-0.187 0.424l-0 0-0.242 0.121-0.272 0.060zM11.291 19.774h-0.513v0.513h-0.211v-1.268h0.815v0.241h-0.574v0.302h0.513v0.241zM12.559 19.683c0 0.121 0 0.241-0.060 0.302-0.082 0.18-0.261 0.302-0.468 0.302-0.005 0-0.011-0-0.016-0l0.001 0c-0.091 0-0.181 0-0.302-0.060l-0.181-0.211-0.060-0.332v-0.060c0-0.121 0-0.241 0.060-0.332 0.082-0.18 0.261-0.302 0.468-0.302 0.005 0 0.011 0 0.016 0l-0.001-0c0.121 0 0.211 0 0.302 0.060 0.060 0.060 0.151 0.151 0.181 0.241 0.060 0.091 0.060 0.211 0.060 0.302v0.091zM12.317 19.623c0-0.151-0.030-0.241-0.091-0.302-0.043-0.073-0.12-0.121-0.209-0.121-0.001 0-0.002 0-0.002 0h0c-0.091 0-0.151 0.030-0.211 0.121l-0.060 0.302v0.060c0 0.121 0 0.211 0.060 0.302 0.060 0.060 0.121 0.091 0.211 0.091s0.181 0 0.211-0.091c0.060-0.060 0.060-0.181 0.091-0.302v-0.060zM13.434 19.925s0-0.060-0.060-0.091l-0.181-0.091c-0.091 0-0.181-0.060-0.211-0.091-0.151-0.060-0.242-0.181-0.242-0.302l0.060-0.181c0.060-0.060 0.091-0.121 0.181-0.151l0.242-0.030 0.242 0.030 0.181 0.151 0.060 0.211h-0.272c0-0.060 0-0.091-0.060-0.151-0.035-0.020-0.076-0.032-0.12-0.032-0.011 0-0.021 0.001-0.032 0.002l0.001-0-0.151 0.030-0.060 0.121c0 0.030 0 0.060 0.060 0.091l0.181 0.091c0.151 0.030 0.272 0.091 0.332 0.151 0.091 0.091 0.121 0.151 0.121 0.272s-0.060 0.181-0.121 0.272c-0.091 0.060-0.211 0.091-0.362 0.091-0.091 0-0.181 0-0.272-0.060l-0.181-0.151-0.060-0.211h0.272c0 0.121 0.091 0.211 0.242 0.211 0.060 0 0.121 0 0.151-0.060l0.060-0.091zM14.853 19.23h-0.392v1.057h-0.272v-1.057h-0.392v-0.241h1.057v0.241zM15.758 19.743h-0.483v0.332h0.604v0.211h-0.906v-1.268h0.906v0.241h-0.604v0.302h0.513v0.211zM16.483 19.804h-0.181v0.483h-0.241v-1.268h0.453c0.181 0 0.302 0.060 0.362 0.121 0.091 0.060 0.121 0.151 0.121 0.302 0 0.060 0 0.151-0.060 0.211 0 0.060-0.091 0.091-0.151 0.121l0.272 0.543h-0.302l-0.241-0.483zM16.302 19.623h0.241l0.151-0.030 0.030-0.151-0.030-0.151-0.181-0.030h-0.211v0.362zM17.932 19.864v0.453h-0.302v-1.298h0.543l0.241 0.060 0.181 0.151 0.060 0.241c0 0.121-0.060 0.211-0.151 0.302-0.091 0.060-0.211 0.091-0.362 0.091h-0.211zM17.932 19.653h0.241c0.060 0 0.121 0 0.151-0.060l0.060-0.121c0-0.060 0-0.121-0.060-0.151-0.038-0.037-0.090-0.060-0.148-0.060-0.001 0-0.002 0-0.003 0h-0.241v0.362zM19.592 19.774h-0.513v0.332h0.604v0.211h-0.845v-1.298h0.785v0.241h-0.604v0.302h0.513v0.211zM20.83 19.26h-0.392v1.057h-0.272v-1.057h-0.392v-0.241h1.057v0.241zM21.736 19.774h-0.483v0.332h0.604v0.211h-0.875v-1.298h0.875v0.241h-0.604v0.302h0.483v0.211zM22.491 19.834h-0.211v0.483h-0.302v-1.298h0.513c0.151 0 0.272 0.060 0.332 0.121 0.091 0.060 0.121 0.151 0.121 0.302l-0.030 0.211-0.181 0.121 0.302 0.543h-0.302l-0.241-0.483zM22.279 19.623h0.211l0.151-0.030 0.060-0.151c0-0.060 0-0.121-0.060-0.151l-0.151-0.030h-0.211v0.362zM23.819 19.985l-0.030-0.121-0.211-0.091c-0.091 0-0.151-0.060-0.211-0.091-0.151-0.060-0.211-0.181-0.211-0.302 0-0.091 0-0.151 0.060-0.181 0-0.060 0.091-0.121 0.151-0.151l0.241-0.030 0.272 0.030 0.151 0.151 0.060 0.211h-0.272c0-0.060 0-0.091-0.060-0.151-0.035-0.020-0.076-0.032-0.12-0.032-0.011 0-0.021 0.001-0.032 0.002l0.001-0-0.151 0.030-0.060 0.121 0.091 0.091 0.181 0.091c0.151 0.030 0.241 0.091 0.302 0.151 0.091 0.091 0.121 0.151 0.121 0.272s-0.030 0.181-0.121 0.272c-0.091 0.060-0.211 0.091-0.332 0.091s-0.211 0-0.302-0.060l-0.181-0.151-0.060-0.211h0.302c0 0.121 0.060 0.211 0.241 0.211 0.060 0 0.091 0 0.151-0.060l0.030-0.091z"></path>
</symbol>
<symbol id="icon-logo6" viewBox="0 0 32 32">
<path fill="#afb1b8" style="fill: var(--color2, #afb1b8)" d="M16.121 15.215c-0.114-0.15-0.183-0.34-0.183-0.546 0-0.020 0.001-0.041 0.002-0.061l-0 0.003v-0.875c0-0.242 0.060-0.453 0.181-0.604 0.121-0.121 0.332-0.211 0.604-0.211 0.302 0 0.513 0.060 0.604 0.181 0.151 0.151 0.211 0.332 0.181 0.513v0.211h-0.483v-0.392c0-0.060-0.060-0.091-0.091-0.121-0.050-0.038-0.113-0.060-0.181-0.060v0c-0.068 0-0.131 0.023-0.182 0.061l0.001-0.001c-0.060 0-0.091 0.060-0.091 0.121v1.268l0.030 0.302 0.121 0.060 0.121 0.030c0.060 0 0.121 0 0.181-0.060l0.060-0.121v-0.423h0.513v0.211c0 0.181-0.030 0.362-0.151 0.543-0.121 0.121-0.302 0.181-0.604 0.181s-0.513-0.060-0.604-0.211zM18.204 15.215c-0.151-0.121-0.211-0.302-0.211-0.604v-0.906c0-0.242 0.060-0.453 0.211-0.604 0.121-0.091 0.302-0.181 0.604-0.181s0.513 0.091 0.634 0.211c0.121 0.121 0.181 0.302 0.181 0.604v0.906c0 0.242-0.060 0.453-0.181 0.604-0.121 0.121-0.332 0.181-0.604 0.181-0.302 0-0.513-0.060-0.634-0.211zM19.049 15.004l0.060-0.272v-1.117c0-0.091 0-0.181-0.060-0.272l-0.091-0.060c-0.023-0.006-0.049-0.010-0.075-0.010s-0.053 0.004-0.078 0.010l0.002-0c-0.018-0.004-0.039-0.006-0.060-0.006s-0.042 0.002-0.062 0.006l0.002-0-0.091 0.060c-0.060 0.091-0.091 0.181-0.060 0.272v1.117c0 0.091 0 0.181 0.060 0.302l0.091 0.060c0.040 0.017 0.087 0.026 0.136 0.026s0.096-0.010 0.138-0.027l-0.002 0.001 0.091-0.091zM20.226 12.981h0.543l0.392 1.66 0.423-1.691h0.513l0.030 2.445h-0.362l-0.060-1.691-0.392 1.691h-0.302l-0.392-1.691-0.091 1.691h-0.392l0.060-2.415zM22.732 12.981h0.845c0.483 0 0.725 0.211 0.725 0.664s-0.272 0.664-0.755 0.664h-0.302v1.087h-0.513v-2.415zM23.457 14.008h0.151l0.121-0.091 0.091-0.272-0.030-0.211-0.030-0.060-0.091-0.060c-0.060-0.030-0.151-0.060-0.211-0.030h-0.211v0.725h0.211zM25.057 12.981h0.513l0.604 2.415h-0.513l-0.091-0.574h-0.513l-0.121 0.574h-0.483l0.604-2.415zM25.509 14.551l-0.211-1.026-0.181 1.026h0.392zM26.596 12.981h0.362l0.694 1.358v-1.358h0.423v2.415h-0.332l-0.694-1.449v1.449h-0.483v-2.415zM29.072 14.491l-0.574-1.509h0.483l0.362 0.936 0.302-0.966h0.483l-0.574 1.509v0.936h-0.483v-0.906zM16.906 16.453v0.151h-0.392v0.966h-0.211v-0.966h-0.423v-0.151h1.026zM18.234 17.57h-0.211l-0.121-0.302h-0.574l-0.121 0.302h-0.181l0.513-1.117h0.181l0.513 1.117zM17.389 17.208h0.483l-0.211-0.453-0.030-0.121v0.060l-0.030 0.060-0.211 0.453zM19.109 17.479h0.091c0.065-0.001 0.127-0.012 0.185-0.031l-0.004 0.001 0.060-0.030v-0.272h-0.241v-0.091h0.392v0.423c-0.094 0.062-0.207 0.105-0.328 0.12l-0.004 0h-0.151c-0.091 0-0.181 0-0.272-0.060-0.080-0.018-0.151-0.049-0.213-0.092l0.002 0.001-0.121-0.181-0.060-0.241c0-0.091 0-0.151 0.060-0.241 0-0.060 0.060-0.121 0.121-0.181 0.060-0.030 0.121-0.091 0.211-0.091 0.098-0.041 0.212-0.065 0.331-0.065 0.032 0 0.064 0.002 0.095 0.005l-0.004-0c0.080 0.020 0.151 0.051 0.214 0.092l-0.003-0.002 0.091 0.060-0.030 0.060h-0.121l-0.091-0.060c-0.061-0.031-0.133-0.052-0.209-0.060l-0.003-0c-0.078 0.008-0.15 0.029-0.215 0.062l0.003-0.002-0.151 0.060-0.091 0.151v0.392c0 0.060 0.060 0.121 0.121 0.151 0.081 0.075 0.189 0.121 0.309 0.121 0.008 0 0.017-0 0.025-0.001l-0.001 0zM20.74 17.449h0.574v0.121h-0.725v-1.117h0.151v0.996zM21.887 17.57h-0.151v-1.117h0.181v1.117zM22.551 16.453v0.030l0.785 0.845v-0.875h0.151v1.117h-0.151l-0.755-0.845v0.875h-0.151v-1.117h0.091zM24.755 16.453v0.121h-0.604v0.392h0.483v0.121h-0.483v0.362h0.604v0.121h-0.785v-1.117h0.785zM6.4 9.57l7.789 1.902v6.641l-7.789-1.902v-6.642zM5.887 8.966v7.638l8.785 2.113v-7.547l-8.755-2.174z"></path>
<path fill="#afb1b8" style="fill: var(--color2, #afb1b8)" d="M10.596 22.249l-8.785-2.143v-7.608l8.785 2.174v7.547z"></path>
<path fill="#afb1b8" style="fill: var(--color2, #afb1b8)" d="M6.038 9.479l7.668 1.872-3.26 2.838-7.668-1.902 3.26-2.808zM5.887 8.996l-4.075 3.502 8.785 2.174 4.075-3.532-8.755-2.143zM11.079 21.826l3.623-3.109-3.623-0.875v3.985z"></path>
</symbol>
<symbol id="icon-logo5" viewBox="0 0 32 32">
<path fill="#afb1b8" style="fill: var(--color2, #afb1b8)" d="M8.091 20.438c0.060 0.091 0.091 0.211 0.091 0.302l-0.030 0.211-0.121 0.151c-0.151 0.121-0.332 0.151-0.513 0.151h-0.875v-1.872h0.845c0.181 0 0.362 0.030 0.483 0.121l0.121 0.151 0.060 0.211c0 0.091-0.030 0.211-0.121 0.302l-0.242 0.121c0.121 0 0.211 0.091 0.302 0.151zM7.064 20.166h0.362c0.060 0 0.151 0 0.211-0.060l0.060-0.091 0.030-0.091v-0.091l-0.091-0.091c-0.060-0.060-0.151-0.060-0.242-0.060h-0.332v0.483zM7.668 20.891l0.091-0.091v-0.211l-0.060-0.091c-0.091-0.060-0.181-0.060-0.272-0.060h-0.362v0.513h0.362c0.091 0 0.181 0 0.272-0.060zM9.841 21.253l-0.483-0.725h-0.181v0.725h-0.423v-1.872h0.785c0.211 0 0.392 0.060 0.543 0.151 0.121 0.121 0.181 0.241 0.181 0.392s-0.030 0.302-0.121 0.392c-0.091 0.091-0.242 0.151-0.362 0.181l0.513 0.755h-0.453zM9.177 20.257h0.332c0.242 0 0.362-0.091 0.362-0.272l-0.030-0.121c-0.015-0.035-0.036-0.065-0.060-0.091l0 0-0.272-0.091h-0.332v0.604zM12.075 20.891h-0.815l-0.151 0.362h-0.423l0.755-1.841h0.453l0.755 1.841h-0.423l-0.151-0.362zM11.955 20.589l-0.302-0.785-0.302 0.785h0.604zM14.883 21.253h-0.392l-0.906-1.268v1.268h-0.423v-1.872h0.392l0.906 1.268v-1.268h0.423v1.872zM17.208 20.83c-0.060 0.121-0.211 0.241-0.362 0.302-0.181 0.091-0.362 0.121-0.574 0.121h-0.725v-1.872h0.755c0.211 0 0.392 0.030 0.604 0.121 0.121 0.060 0.272 0.181 0.332 0.302 0.081 0.144 0.129 0.315 0.129 0.498s-0.048 0.355-0.132 0.503l0.003-0.005zM16.755 20.77c0.11-0.118 0.178-0.278 0.178-0.453s-0.068-0.335-0.179-0.453l0 0c-0.151-0.121-0.302-0.181-0.513-0.151h-0.302v1.208h0.302c0.181 0 0.362-0.060 0.513-0.151zM12.347 8.996s5.253 1.811 5.132 4.438v4.468s-5.253-1.811-5.132-4.468v-4.438zM22.189 16.845c0.996-0.604 2.113-0.996 3.321-1.117v-1.389c-1.373 0.485-2.508 1.357-3.307 2.485l-0.014 0.021z"></path>
<path fill="#afb1b8" style="fill: var(--color2, #afb1b8)" d="M21.585 17.268c0.815-1.509 2.234-2.657 3.925-3.23v-4.015s-7.487 2.596-7.336 6.34v6.34l0.875-0.332v-0.604c0.181-1.751 1.087-3.351 2.536-4.498z"></path>
<path fill="#afb1b8" style="fill: var(--color2, #afb1b8)" d="M20.86 19.623c0.060-0.423 0.121-0.875 0.272-1.298-0.95 1.002-1.55 2.343-1.6 3.824l-0 0.010 1.449-0.694c-0.121-0.604-0.181-1.208-0.121-1.811zM21.162 19.623c-0.016 0.162-0.026 0.351-0.026 0.542 0 0.407 0.042 0.803 0.123 1.186l-0.007-0.037c2.053-1.117 4.347-2.868 4.257-4.951v-0.181c-1.449 0.151-2.838 0.725-3.894 1.66-0.241 0.604-0.392 1.208-0.453 1.811z"></path>
</symbol>
<symbol id="icon-logo3" viewBox="0 0 32 32">
<path fill="#afb1b8" style="fill: var(--color2, #afb1b8)" d="M10.989 21.766l0.091 0.060-0.181 0.121-0.272 0.060c-0.091 0-0.151 0-0.242-0.060l-0.181-0.091-0.121-0.181c-0.028-0.067-0.044-0.145-0.044-0.226s0.016-0.159 0.046-0.23l-0.001 0.004 0.121-0.181c0.060-0.030 0.121-0.091 0.211-0.091 0.072-0.024 0.155-0.038 0.242-0.038s0.169 0.014 0.247 0.040l-0.006-0.002 0.181 0.091-0.060 0.060h-0.091l-0.030-0.030c-0.065-0.038-0.143-0.061-0.226-0.061-0.005 0-0.011 0-0.016 0l0.001-0-0.181 0.030-0.151 0.091c0 0.060-0.060 0.091-0.091 0.151v0.362l0.091 0.121 0.151 0.091h0.272c0.081-0.009 0.154-0.042 0.212-0.091l-0.001 0h0.030zM12.891 21.434l-0.030 0.241-0.151 0.181-0.181 0.091c-0.151 0.060-0.332 0.060-0.513 0-0.069-0.021-0.129-0.052-0.183-0.092l0.002 0.001-0.121-0.181c-0.028-0.067-0.044-0.145-0.044-0.226s0.016-0.159 0.046-0.23l-0.001 0.004c0-0.060 0.060-0.121 0.121-0.181l0.181-0.091c0.181-0.060 0.362-0.060 0.513 0l0.181 0.091c0.112 0.095 0.182 0.235 0.182 0.392 0 0.011-0 0.021-0.001 0.032l0-0.001zM12.709 21.434v-0.151c-0.036-0.116-0.126-0.206-0.239-0.241l-0.003-0.001c-0.054-0.018-0.116-0.028-0.181-0.028s-0.127 0.010-0.185 0.029l0.004-0.001-0.151 0.091-0.091 0.151v0.332c0.036 0.116 0.126 0.206 0.239 0.241l0.003 0.001h0.362l0.121-0.091c0.060-0.030 0.091-0.091 0.091-0.151l0.030-0.151zM14.189 21.645v0.030l0.030-0.030v-0.060l0.453-0.664h0.211v1.057h-0.151v-0.845l-0.423 0.664-0.060 0.030h-0.060l-0.513-0.694v0.875h-0.151v-1.057h0.181l0.423 0.664 0.030 0.060zM15.758 21.585v0.392h-0.151v-1.057h0.574c0.060 0 0.091 0.060 0.151 0.091l0.060 0.091 0.030 0.151v0.121l-0.121 0.121-0.121 0.060-0.211 0.030h-0.211zM15.758 21.464h0.332l0.091-0.060 0.060-0.060v-0.211c0-0.030 0-0.060-0.060-0.091l-0.211-0.060h-0.211v0.453zM17.992 21.977h-0.181l-0.121-0.302h-0.574l-0.121 0.302h-0.181l0.483-1.057h0.181l0.513 1.057zM17.177 21.585h0.453l-0.181-0.423-0.060-0.121v0.121l-0.211 0.423zM18.717 20.921l0.725 0.815v-0.815h0.151v1.057h-0.121l-0.755-0.845v0.815h-0.151v-1.057h0.121zM20.8 21.555v0.423h-0.151v-0.423l-0.483-0.634h0.211l0.302 0.453c0.011 0.025 0.021 0.055 0.029 0.086l0.001 0.004 0.030-0.060 0.030-0.030 0.302-0.423v-0.030h0.181l-0.423 0.634zM14.098 19.109h0.242c1.095-0.423 2.005-1.12 2.676-2.007l0.011-0.015c0.664-0.906 0.996-1.932 0.966-3.019l-1.208-1.026c0.074 0.337 0.117 0.723 0.117 1.12 0 0.808-0.176 1.575-0.493 2.265l0.014-0.034c-0.514 1.127-1.31 2.050-2.301 2.702l-0.024 0.015z"></path>
<path fill="#afb1b8" style="fill: var(--color2, #afb1b8)" d="M13.675 19.019v0.030c1.147-0.694 1.992-1.66 2.475-2.777s0.543-2.355 0.211-3.502l-1.721-1.509c0.544 0.929 0.866 2.047 0.866 3.239 0 1.758-0.699 3.352-1.834 4.521l0.002-0.002zM19.592 15.336c-0.331 1.245-1.059 2.287-2.038 3.008l-0.015 0.011-0.996 0.604c0.882-0.229 1.65-0.625 2.306-1.156l-0.011 0.009c0.604-0.513 1.147-1.147 1.449-1.841l-0.694-0.604z"></path>
<path fill="#afb1b8" style="fill: var(--color2, #afb1b8)" d="M19.321 15.185l-1.026-0.906c0 1.026-0.332 1.992-0.936 2.838s-1.449 1.54-2.475 2.023l0.694-0.030c0.936-0.332 1.781-0.906 2.415-1.57 0.615-0.635 1.069-1.432 1.291-2.319l0.008-0.035zM13.826 10.626l-1.208-1.057c-1.073 0.35-1.975 0.979-2.649 1.801l-0.008 0.010c-0.615 0.762-0.99 1.74-0.996 2.806v0.001c0 1.117 0.423 2.174 1.208 3.019 0.785 0.906 1.902 1.509 3.109 1.811 1.13-1.153 1.827-2.734 1.827-4.478 0-1.468-0.494-2.82-1.325-3.9l0.011 0.015zM22.068 15.004c0-1.298-0.604-2.566-1.66-3.472-1.075-0.923-2.482-1.485-4.022-1.485-0.722 0-1.415 0.124-2.059 0.351l0.043-0.013 7.336 6.4c0.241-0.574 0.362-1.177 0.362-1.781z"></path>
</symbol>
<symbol id="icon-logo2" viewBox="0 0 32 32">
<path fill="#afb1b8" style="fill: var(--color2, #afb1b8)" d="M15.125 8.755h-0.332c-0.058-0.002-0.127-0.003-0.196-0.003s-0.138 0.001-0.206 0.003l0.010-0c-1.117 0-2.204 0.302-3.2 0.755l-0.151 0.060v6.732l0.302-0.121c0.986-0.335 2.124-0.543 3.306-0.573l0.015-0v0.906h-0.332c-1.526 0.078-2.939 0.493-4.187 1.173l0.051-0.026v-8.574c1.296-0.775 2.858-1.234 4.527-1.238h0.152c0.571 0.026 1.109 0.101 1.629 0.223l-0.060-0.012v0.845c-0.362-0.091-0.725-0.121-1.087-0.151h-0.272zM16.634 9.63h0.604c1.673-0.005 3.243-0.44 4.607-1.202l-0.048 0.025v8.453c-1.286 0.752-2.832 1.196-4.482 1.196-0.615 0-1.215-0.062-1.795-0.179l0.058 0.010v-8.453c0.315 0.073 0.687 0.127 1.067 0.15l0.019 0.001zM20.921 9.691l-0.302 0.091-0.845 0.272c-0.762 0.201-1.637 0.316-2.539 0.316-0.19 0-0.379-0.005-0.567-0.015l0.026 0.001h-0.241v6.853h0.181l0.604 0.060c1.309-0.003 2.545-0.314 3.639-0.867l-0.047 0.021 0.121-0.060v-6.672z"></path>
<path fill="#afb1b8" style="fill: var(--color2, #afb1b8)" d="M10.777 20.589c-0.079-0.074-0.185-0.119-0.302-0.121h-0.212c-0.178 0.064-0.303 0.231-0.303 0.427 0 0.009 0 0.018 0.001 0.027l-0-0.001v1.147c0 0.091 0 0.181 0.060 0.241 0 0.060 0.060 0.121 0.091 0.151l0.181 0.091h0.332c0.179-0.074 0.302-0.246 0.302-0.448 0-0.002 0-0.004-0-0.005v0-0.121h-0.302v0.181l-0.121 0.121h-0.060c-0.008 0.002-0.018 0.003-0.028 0.003-0.050 0-0.095-0.025-0.122-0.063l-0-0-0.030-0.181v-1.087l0.030-0.151c0.024-0.054 0.077-0.091 0.139-0.091 0.004 0 0.009 0 0.013 0.001l-0.001-0c0.055 0.007 0.1 0.042 0.12 0.090l0 0.001c0.060 0.030 0.060 0.091 0.060 0.151v0.091h0.302v-0.121c-0.004-0.141-0.061-0.268-0.151-0.362l0 0zM12.559 20.589c-0.092-0.074-0.211-0.119-0.339-0.119-0.062 0-0.122 0.010-0.178 0.030l0.004-0.001c-0.060 0-0.121 0.030-0.151 0.091l-0.121 0.151-0.030 0.211v1.117l0.030 0.211c0 0.060 0.060 0.121 0.121 0.151 0.030 0.060 0.091 0.091 0.151 0.091 0.054 0.021 0.116 0.033 0.181 0.033s0.127-0.012 0.185-0.034l-0.004 0.001c0.060 0 0.121-0.030 0.151-0.091 0.093-0.088 0.151-0.213 0.151-0.351 0-0.004-0-0.008-0-0.012v0.001-1.117l-0.030-0.211c0-0.060-0.060-0.121-0.121-0.151zM12.438 22.068c0 0.001 0 0.002 0 0.003 0 0.058-0.023 0.11-0.060 0.148l0-0c-0.038 0.039-0.092 0.063-0.151 0.063s-0.113-0.024-0.151-0.063l-0-0c-0.037-0.038-0.060-0.090-0.060-0.148 0-0.001 0-0.002 0-0.003v0-1.117c0-0.001-0-0.002-0-0.003 0-0.058 0.023-0.11 0.060-0.148l-0 0c0.038-0.039 0.092-0.063 0.151-0.063s0.113 0.024 0.151 0.063l0 0c0.037 0.038 0.060 0.090 0.060 0.148 0 0.001 0 0.002-0 0.003v-0 1.117zM14.913 22.551v-2.083h-0.302l-0.362 1.117-0.392-1.117h-0.302v2.083h0.302v-1.268l0.302 0.906h0.151l0.302-0.906v1.268h0.302zM16.604 20.619l-0.181-0.121h-0.664v2.053h0.302v-0.815h0.151c0.091 0 0.181 0 0.272-0.060l0.151-0.151 0.091-0.181c0.016-0.082 0.025-0.176 0.025-0.272s-0.009-0.19-0.027-0.281l0.002 0.009-0.121-0.181zM16.453 21.223l-0.030 0.151-0.091 0.060c-0.023 0.006-0.049 0.010-0.075 0.010s-0.053-0.003-0.078-0.010l0.002 0h-0.121v-0.694h0.151l0.121 0.030 0.091 0.091v0.392zM17.992 20.468h-0.241l-0.453 2.083h0.302l0.091-0.453h0.392l0.091 0.453h0.302l-0.483-2.083zM17.721 21.826l0.151-0.755 0.151 0.755h-0.302zM19.925 21.736l-0.483-1.268h-0.272v2.083h0.302v-1.238l0.453 1.238h0.302v-2.083h-0.302v1.268zM21.736 20.468l-0.241 0.815-0.272-0.815h-0.302l0.423 1.208v0.875h0.302v-0.906l0.392-1.177h-0.302zM9.962 23.125h0.151v0.423h0.091v-0.423h0.151v-0.060h-0.392v0.060zM11.17 23.064l-0.181 0.483h0.091l0.030-0.121h0.211l0.030 0.121h0.121l-0.211-0.483h-0.091zM11.17 23.366l0.030-0.211 0.091 0.181h-0.151zM12.377 23.366h0.091v0.060l-0.121 0.030c-0.003 0-0.007 0-0.010 0-0.031 0-0.059-0.012-0.080-0.031l0 0-0.060-0.121c0-0.121 0.060-0.181 0.151-0.181 0.009-0.003 0.019-0.005 0.030-0.005 0.050 0 0.091 0.041 0.091 0.091 0 0.002-0 0.004-0 0.005v-0h0.091c0-0.121-0.091-0.181-0.211-0.181l-0.181 0.060c-0.040 0.043-0.065 0.101-0.065 0.165 0 0.016 0.002 0.033 0.005 0.048l-0-0.002c0 0.060 0 0.121 0.060 0.181 0.043 0.038 0.099 0.061 0.161 0.061 0.007 0 0.014-0 0.021-0.001l-0.001 0c0.091 0 0.151 0 0.211-0.091v-0.181h-0.211v0.091zM13.585 23.064h-0.121v0.483h0.332v-0.091h-0.211v-0.392zM14.581 23.064h-0.091v0.483h0.091v-0.483zM15.577 23.366l-0.181-0.302h-0.091v0.483h0.091v-0.302l0.181 0.302h0.091v-0.483h-0.091v0.302zM16.483 23.336h0.241v-0.091h-0.241v-0.121h0.272v-0.060h-0.362v0.483h0.362v-0.091h-0.272v-0.121zM18.717 23.245h-0.211v-0.181h-0.091v0.483h0.091v-0.211h0.181v0.211h0.091v-0.483h-0.060v0.181zM19.623 23.336h0.211v-0.091h-0.211v-0.121h0.272v-0.060h-0.362v0.483h0.362v-0.091h-0.272v-0.121zM20.83 23.336c0.091 0 0.121-0.060 0.121-0.151 0-0.003 0-0.007 0-0.010 0-0.031-0.012-0.059-0.031-0.080l0 0c-0.037-0.020-0.080-0.031-0.127-0.031-0.009 0-0.017 0-0.025 0.001l0.001-0h-0.211v0.483h0.121v-0.211h0.060l0.030 0.060 0.121 0.151h0.121l-0.060-0.091-0.121-0.121zM20.74 23.245h-0.060v-0.121h0.151c0.033 0 0.060 0.027 0.060 0.060s-0.027 0.060-0.060 0.060v0c-0.014 0.002-0.029 0.003-0.045 0.003s-0.032-0.001-0.047-0.004l0.002 0zM21.766 23.336h0.241v-0.091h-0.241v-0.121h0.272v-0.060h-0.362v0.483h0.362v-0.091h-0.272v-0.121z"></path>
</symbol>
<symbol id="icon-logo1" viewBox="0 0 32 32">
<path fill="#afb1b8" style="fill: var(--color2, #afb1b8)" d="M11.472 9.057l2.113 1.992h-3.925v9.721h10.264v-3.713l2.113 1.992v-9.992h-10.566zM19.834 16.815l-6.008-5.645h6.008v5.675zM17.962 19.351h-6.672v-6.521h0.453v6.068h6.219v0.453zM12.86 22.068l-0.242 0.513-0.242-0.543h-0.211l0.362 0.664v0.423h0.181v-0.423l0.362-0.664h-0.211zM13.162 23.155l0.091-0.272h0.423l0.091 0.272h0.181l-0.362-1.117h-0.181l-0.423 1.117h0.181zM13.464 22.309l0.151 0.423h-0.302l0.151-0.423zM14.46 22.702l-0.060 0.151c0 0.091 0.030 0.151 0.121 0.211 0.060 0.060 0.121 0.091 0.242 0.091 0.091 0 0.181 0 0.272-0.091l0.060 0.091h0.211l-0.151-0.211c0.060-0.060 0.091-0.181 0.091-0.302h-0.151c0 0.060 0 0.121-0.060 0.181l-0.211-0.241 0.091-0.060 0.091-0.091c0.025-0.037 0.039-0.083 0.039-0.132 0-0.066-0.027-0.126-0.070-0.17l0 0c-0.046-0.038-0.106-0.061-0.171-0.061-0.004 0-0.007 0-0.011 0h0.001c-0.009-0.001-0.018-0.001-0.028-0.001-0.069 0-0.133 0.023-0.184 0.062l0.001-0.001c-0.060 0.060-0.091 0.121-0.091 0.211l0.030 0.091 0.091 0.151c-0.058 0.033-0.108 0.073-0.15 0.12l-0 0zM14.943 22.943c-0.050 0.038-0.113 0.060-0.181 0.060v0l-0.121-0.030c-0.037-0.028-0.060-0.072-0.060-0.121v0c0-0.060 0.030-0.121 0.091-0.151h0.030l0.242 0.241zM14.732 22.491l-0.060-0.181v-0.091h0.211l0.030 0.091-0.030 0.091-0.121 0.091zM16.483 23.064c0.091-0.060 0.121-0.151 0.121-0.272h-0.181c0 0.091 0 0.121-0.060 0.151-0.030 0.060-0.091 0.060-0.181 0.060-0.002 0-0.005 0-0.008 0-0.072 0-0.135-0.036-0.173-0.090l-0-0.001-0.060-0.272v-0.091c0-0.121 0.030-0.211 0.091-0.272 0.030-0.060 0.091-0.060 0.181-0.060l0.151 0.030 0.060 0.181h0.181c0-0.121-0.030-0.211-0.121-0.302l-0.302-0.060c-0.060 0-0.151 0-0.211 0.060l-0.151 0.151c-0.039 0.077-0.061 0.169-0.061 0.265 0 0.013 0 0.026 0.001 0.038l-0-0.002v0.091c0 0.091 0 0.181 0.060 0.241 0.030 0.091 0.091 0.151 0.151 0.181l0.211 0.060c0.151 0 0.241-0.030 0.302-0.091zM17.6 22.913l0.030-0.302v-0.030c0-0.121 0-0.211-0.060-0.302-0.074-0.126-0.208-0.21-0.362-0.211h-0c-0.091 0-0.181 0-0.241 0.060-0.060 0.030-0.121 0.091-0.151 0.181-0.060 0.060-0.060 0.151-0.060 0.272v0.060c0 0.091 0 0.181 0.060 0.272 0 0.091 0.091 0.151 0.151 0.181l0.241 0.060c0.091 0 0.151 0 0.211-0.060 0.091-0.030 0.121-0.121 0.181-0.181zM17.389 22.309l0.060 0.272v0.060c0 0.121 0 0.211-0.060 0.272l-0.181 0.091c-0.011 0.002-0.023 0.003-0.036 0.003-0.073 0-0.137-0.037-0.175-0.093l-0-0.001-0.060-0.302v-0.030c0-0.121 0-0.211 0.060-0.302l0.211-0.060c0.060 0 0.121 0 0.181 0.091z"></path></symbol><symbol id="icon-linkedin" viewBox="0 0 32 32"><path d="M32 32v-11.68c0-5.76-1.28-10.24-8-10.24-3.2 0-5.28 1.76-6.24 3.52v-3.040h-6.56v21.44h6.56v-10.56c0-2.88 0.48-5.44 4-5.44 3.36 0 3.52 3.2 3.52 5.6v10.4h6.72zM0.48 10.56h6.72v21.44h-6.72v-21.44zM3.84 0c-2.080 0-3.84 1.6-3.84 3.84 0 2.080 1.6 3.84 3.84 3.84 2.121 0 3.84-1.719 3.84-3.84s-1.719-3.84-3.84-3.84v0z"></path></symbol><symbol id="icon-facebook" viewBox="0 0 32 32"><path d="M21.28 5.28h3.040v-5.12l-4.32-0.16c-4.16 0-7.040 2.72-7.040 7.52v4.48h-4.96v5.76h4.8v14.24h5.6v-14.4h4.48l0.8-5.6h-5.28v-3.84c0-1.6 0.48-2.88 2.72-2.88z"></path></symbol><symbol id="icon-twitter" viewBox="0 0 32 32"><path d="M32 6.080c-1.12 0.48-2.4 0.8-3.84 0.96 1.347-0.785 2.365-2.010 2.867-3.475l0.013-0.045c-1.28 0.8-2.56 1.28-4.16 1.6-1.201-1.288-2.908-2.091-4.803-2.091-3.623 0-6.56 2.937-6.56 6.56 0 0.515 0.059 1.015 0.171 1.496l-0.009-0.044c-5.44-0.32-10.24-2.88-13.44-6.88-0.562 0.947-0.894 2.088-0.894 3.307 0 2.289 1.173 4.305 2.95 5.478l0.025 0.015c-1.117-0.011-2.163-0.306-3.072-0.817l0.032 0.017c0 3.2 2.24 5.92 5.28 6.4-0.553 0.173-1.188 0.272-1.847 0.272-0.422 0-0.835-0.041-1.234-0.119l0.040 0.007c0.96 2.72 3.2 4.64 6.24 4.64-2.212 1.759-5.047 2.822-8.129 2.822-0.575 0-1.141-0.037-1.697-0.109l0.066 0.007c2.88 1.92 6.4 2.72 10.080 2.72 0.003 0 0.007 0 0.011 0 10.25 0 18.56-8.31 18.56-18.56 0-0.225-0.004-0.449-0.012-0.672l0.001 0.032c1.44-0.96 2.4-2.080 3.36-3.36z"></path></symbol><symbol id="icon-instagram" viewBox="0 0 32 32"><path d="M32 9.44c0-1.6-0.32-2.88-0.8-3.84-0.32-1.12-0.96-2.080-1.76-2.88-0.79-0.823-1.751-1.475-2.826-1.901l-0.054-0.019c-3.142-0.321-6.79-0.504-10.48-0.504s-7.338 0.183-10.934 0.541l0.454-0.037c-1.12 0.48-2.080 1.12-2.88 1.92-0.746 0.756-1.342 1.661-1.741 2.666l-0.019 0.054c-0.48 1.12-0.96 2.24-0.96 4.16-0.035 1.038-0.056 2.258-0.056 3.482 0 4.808 0.311 9.543 0.914 14.186l-0.058-0.548c0.418 1.059 1.014 1.964 1.761 2.721l-0.001-0.001c0.79 0.823 1.751 1.475 2.826 1.901l0.054 0.019c0.96 0.32 2.080 0.64 3.84 0.64 1.251 0.048 2.721 0.075 4.196 0.075 4.553 0 9.045-0.26 13.463-0.765l-0.54 0.050c2.227-0.846 3.954-2.573 4.781-4.744l0.019-0.056 0.64-3.84c0.173-2.39 0.272-5.179 0.272-7.99 0-1.804-0.041-3.599-0.121-5.384l0.009 0.254zM29.12 22.4c0 1.6-0.32 2.4-0.64 3.040-0.48 1.44-1.6 2.56-3.040 3.040-0.48 0.16-1.28 0.48-2.88 0.48-1.382 0.061-3.002 0.095-4.631 0.095-4.004 0-7.959-0.209-11.856-0.616l0.487 0.041c-0.688-0.254-1.276-0.635-1.76-1.12l-0-0c-0.48-0.64-0.96-1.28-1.12-1.92-0.32-0.48-0.64-1.44-0.64-3.040-0.032-1.008-0.051-2.194-0.051-3.384 0-4.389 0.251-8.718 0.739-12.976l-0.049 0.52c0.16-0.64 0.64-1.28 1.12-1.76 0.48-0.64 1.12-0.96 1.76-1.28 0.64-0.16 1.6-0.48 3.2-0.48 1.312-0.055 2.851-0.086 4.397-0.086 3.974 0 7.9 0.205 11.767 0.606l-0.484-0.041c0.8 0.32 1.44 0.64 1.92 1.28 0.48 0.48 0.96 1.12 1.12 1.76 0.32 0.64 0.48 1.44 0.64 3.040 0.116 1.913 0.182 4.149 0.182 6.4s-0.066 4.487-0.196 6.706l0.014-0.306z"></path><path d="M16 7.84c-0.342-0.051-0.738-0.080-1.14-0.080-4.507 0-8.16 3.653-8.16 8.16s3.653 8.16 8.16 8.16c0.402 0 0.797-0.029 1.184-0.085l-0.044 0.005c3.763-0.776 6.552-4.062 6.552-8s-2.789-7.224-6.499-7.991l-0.053-0.009zM16 21.28c-2.916 0-5.28-2.364-5.28-5.28s2.364-5.28 5.28-5.28v0c2.916 0 5.28 2.364 5.28 5.28s-2.364 5.28-5.28 5.28v0zM26.56 7.52c0 1.060-0.86 1.92-1.92 1.92s-1.92-0.86-1.92-1.92v0c0-1.060 0.86-1.92 1.92-1.92s1.92 0.86 1.92 1.92v0z"></path></symbol><symbol id="icon-astronaut" viewBox="0 0 32 32"><path fill="#2196f3" style="fill: var(--color1, #2196f3)" d="M32 4.526c-0.091-0.183-0.274-0.32-0.457-0.366l-1.92-0.274-0.823-1.737c-0.183-0.366-0.777-0.366-0.96 0l-0.914 1.737-1.829 0.274c-0.265 0.042-0.465 0.269-0.465 0.542 0 0.144 0.055 0.275 0.146 0.372l-0-0 1.371 1.371-0.32 1.874c-0.002 0.015-0.002 0.033-0.002 0.051 0 0.303 0.246 0.549 0.549 0.549 0.084 0 0.163-0.019 0.234-0.052l-0.003 0.001 1.691-0.914 1.691 0.914c0.068 0.032 0.147 0.051 0.231 0.051 0.303 0 0.549-0.246 0.549-0.549 0-0.018-0.001-0.036-0.003-0.053l0 0.002-0.32-1.92 1.371-1.371c0.183-0.091 0.229-0.32 0.137-0.503zM29.531 5.851c-0.137 0.137-0.183 0.32-0.183 0.457l0.183 1.143-1.006-0.549c-0.067-0.032-0.146-0.050-0.229-0.050s-0.162 0.018-0.232 0.051l0.003-0.001-1.006 0.549 0.183-1.143c0-0.137 0-0.32-0.137-0.457l-0.823-0.777 1.097-0.183c0.183 0 0.32-0.137 0.457-0.274l0.457-1.006 0.503 0.96c0.091 0.137 0.229 0.274 0.411 0.274l1.097 0.183-0.777 0.777zM26.149 20.526h-1.097v1.051h1.097v-1.006zM26.149 22.674h-1.097v1.051h1.097v-1.051zM27.2 21.577h-1.051v1.097h1.051v-1.097zM25.051 21.577h-1.051v1.097h1.051v-1.097zM22.4 26.377h-1.051v1.097h1.051v-1.097zM22.4 28.526h-1.051v1.051h1.051v-1.051zM23.451 27.429h-1.051v1.097h1.051v-1.097zM21.349 27.429h-1.097v1.097h1.097v-1.097zM16 24.229h-1.051v1.097h1.051v-1.097zM16 26.377h-1.051v1.097h1.051v-1.097zM17.051 25.326h-1.051v1.051h1.051v-1.051zM14.949 25.326h-1.097v1.051h1.097v-1.051zM5.851 6.126h-1.051v1.051h1.051v-1.051zM5.851 8.229h-1.051v1.097h1.051v-1.097z"></path><path fill="#2196f3" style="fill: var(--color1, #2196f3)" d="M6.949 7.177h-1.097v1.097h1.097v-1.097zM4.8 7.177h-1.051v1.097h1.051v-1.097z"></path><path fill="#212121" style="fill: var(--color3, #212121)" d="M24.686 14.171c-0.266-0.377-0.668-0.643-1.132-0.73l-0.011-0.002c-0.457-0.046-0.96 0.091-1.371 0.366l-1.234 0.96-1.92 1.417-1.371-0.549c2.403-1.128 4.037-3.528 4.037-6.309 0-3.81-3.067-6.904-6.867-6.948l-0.004-0c-3.818 0.025-6.904 3.127-6.904 6.948 0 1.392 0.409 2.689 1.114 3.776l-0.016-0.027h-3.063l-3.2 1.646-1.92 0.914h-0.091c-0.524 0.317-0.869 0.884-0.869 1.531 0 0.985 0.799 1.784 1.784 1.784 0.338 0 0.653-0.094 0.922-0.257l-0.008 0.004 1.371-0.731 2.286-1.143h1.371l-5.394 5.349-1.371 1.371c-0.286 0.296-0.462 0.699-0.462 1.143s0.176 0.847 0.462 1.143l-0-0c0.3 0.313 0.722 0.507 1.189 0.507s0.889-0.194 1.188-0.507l0.001-0.001 1.371-1.28 1.691-1.28 0.914 0.914-1.783 1.737-1.28 1.371c-0.299 0.298-0.484 0.71-0.484 1.166s0.185 0.868 0.484 1.166l0 0c0.305 0.302 0.725 0.488 1.189 0.488s0.883-0.186 1.189-0.488l3.428-3.428 1.006-0.96 5.166-5.714 3.474 0.503c0.041 0.012 0.088 0.019 0.137 0.019s0.096-0.007 0.141-0.020l-0.004 0.001 0.046-0.046h0.046l3.2-2.149 0.046-0.046h0.046l1.28-1.234c0.345-0.326 0.559-0.786 0.559-1.297 0-0.388-0.124-0.747-0.334-1.040l0.004 0.005zM2.194 17.783c-0.183 0.091-0.366 0.091-0.594 0-0.264-0.114-0.445-0.373-0.445-0.673 0-0.225 0.101-0.426 0.261-0.56l0.001-0.001 1.28-0.64 0.32 0.914 0.137 0.457-0.96 0.457zM5.669 15.954l-1.554 0.777-0.274-0.731-0.183-0.549 2.011-1.006v1.554zM20.754 9.326c0 0.914-0.183 1.783-0.594 2.56l-4.16-1.92c-0.041-0.569-0.336-1.061-0.771-1.368l-0.006-0.004 1.463-4.846c2.377 0.731 4.114 2.971 4.114 5.577zM9.006 9.326c0.032-3.232 2.66-5.841 5.897-5.841 0.226 0 0.448 0.013 0.667 0.037l-0.027-0.002-1.417 4.709c-0.027-0.001-0.059-0.002-0.091-0.002-1.010 0-1.829 0.819-1.829 1.829 0 0.001 0 0.002 0 0.002v-0c-0.013 0.081-0.020 0.175-0.020 0.271 0 1.010 0.819 1.829 1.829 1.829 0.779 0 1.444-0.487 1.707-1.172l0.004-0.012 3.84 1.783c-1.088 1.432-2.791 2.347-4.709 2.347-3.23 0-5.854-2.597-5.897-5.818l-0-0.004zM14.949 10.103c0 0.457-0.366 0.823-0.823 0.823s-0.777-0.366-0.777-0.823 0.32-0.777 0.777-0.777 0.823 0.366 0.823 0.777zM2.514 25.189c-0.229 0.183-0.64 0.183-0.869 0-0.131-0.11-0.215-0.274-0.215-0.457s0.083-0.347 0.214-0.456l0.001-0.001 0.96-0.914 0.869 0.823-1.006 0.96zM5.714 28.846c-0.229 0.274-0.594 0.274-0.823 0-0.102-0.107-0.165-0.252-0.165-0.411s0.063-0.305 0.166-0.412l0.914-0.914 0.457 0.366 0.457 0.457-1.006 0.914zM9.189 25.417l-1.737 1.737-0.457-0.366-0.411-0.457 1.783-1.783 0.091-0.137v-0.183l0.046-0.091v-0.183l-0.137-0.137v-0.046l-1.6-1.6h-0.091l-0.091-0.091h-0.091l-0.091-0.046h-0.183l-0.091 0.046h-0.183l-1.737 1.371-0.914-0.914 2.377-2.377 4.389 4.297-0.914 0.914zM16.046 18.377h-0.046c-0.019-0.002-0.040-0.004-0.062-0.004-0.136 0-0.259 0.054-0.349 0.141l0-0v0.046l-4.8 5.211-4.343-4.251 2.834-2.834c0.088-0.097 0.141-0.226 0.141-0.367 0-0.288-0.222-0.525-0.505-0.547l-0.002-0h-2.24v-1.6h3.109c1.266 1.312 3.039 2.127 5.003 2.127 0.445 0 0.881-0.042 1.303-0.122l-0.043 0.007 0.137 0.091 2.423 0.914 0.137 0.777 0.183 0.914-2.971-0.457zM20.069 18.56l-0.32-1.554 1.463-1.051 0.366 0.457 0.549 0.777-2.057 1.371zM23.817 15.726l-0.823 0.823-0.914-1.28 0.823-0.594c0.137-0.137 0.32-0.183 0.503-0.183 0.372 0.037 0.661 0.349 0.661 0.728 0 0.197-0.078 0.375-0.204 0.507l0-0z"></path><path fill="#212121" style="fill: var(--color3, #212121)" d="M13.623 18.56l-2.194-2.149c-0.229-0.229-0.549-0.229-0.777 0l-2.149 2.149c-0.087 0.097-0.14 0.225-0.14 0.366s0.053 0.269 0.14 0.366l-0-0 2.149 2.149c0.099 0.1 0.237 0.161 0.389 0.161s0.289-0.062 0.389-0.161v0l2.149-2.149c0.087-0.097 0.14-0.225 0.14-0.366s-0.053-0.269-0.14-0.366l0 0zM11.063 20.297l-1.371-1.371 1.371-1.371 1.371 1.371-1.371 1.371zM17.143 5.029l-0.229 1.097c0.046 0 1.737 0.457 1.737 2.149h1.006c0-2.057-1.646-2.971-2.56-3.2zM19.703 9.326h-1.051v1.051h1.006v-1.051z"></path></symbol><symbol id="icon-diagram" viewBox="0 0 32 32"><path fill="#2196f3" style="fill: var(--color1, #2196f3)" d="M14.903 14.949h1.097v4.8h-1.097v-4.8zM19.2 17.097h1.051v2.651h-1.051v-2.651zM10.651 18.697h1.097v1.051h-1.097v-1.006zM7.451 18.149h1.097v1.6h-1.097v-1.6z"></path><path fill="#212121" style="fill: var(--color3, #212121)" d="M1.6 28.297h25.6c0.869 0 1.6-0.731 1.6-1.6v-2.149c0-0.914-0.731-1.6-1.6-1.6h-0.549v-13.257l3.017-2.88c0.213 0.112 0.465 0.178 0.733 0.178 0.884 0 1.6-0.716 1.6-1.6s-0.716-1.6-1.6-1.6c-0.884 0-1.6 0.716-1.6 1.6 0 0.234 0.050 0.455 0.14 0.655l-0.004-0.010-2.286 2.149v-1.234c0-0.869-0.731-1.6-1.6-1.6h-21.303c-0.914 0-1.6 0.731-1.6 1.6v16h-0.549c-0.914 0-1.6 0.731-1.6 1.6v2.149c0 0.914 0.731 1.6 1.6 1.6zM30.4 4.846c0.047-0.014 0.101-0.023 0.157-0.023 0.303 0 0.549 0.246 0.549 0.549s-0.246 0.549-0.549 0.549c-0.056 0-0.11-0.008-0.161-0.024l0.004 0.001c-0.229-0.070-0.392-0.279-0.392-0.526s0.163-0.456 0.388-0.525l0.004-0.001zM3.2 6.949c0-0.274 0.229-0.503 0.549-0.503h21.303c0.274 0 0.549 0.229 0.549 0.503v2.286l-1.097 1.006v-2.194c0-0.32-0.229-0.549-0.503-0.549h-19.2c-0.274 0-0.549 0.229-0.549 0.549v13.303c0 0.32 0.274 0.549 0.549 0.549h19.2c0.274 0 0.503-0.229 0.503-0.549v-9.646l1.097-1.006v12.251h-22.4v-16zM8 13.897c-0.007-0-0.015-0-0.022-0-0.884 0-1.6 0.716-1.6 1.6s0.716 1.6 1.6 1.6c0.436 0 0.831-0.174 1.12-0.457l-0 0 1.829 0.914c0.229 0.137 0.503 0.091 0.686-0.091l3.931-4.434 3.84 2.88c0.229 0.183 0.503 0.137 0.686 0l3.383-3.2v8.137h-18.103v-12.297h18.103v2.697l-3.749 3.566-3.931-2.926c-0.229-0.183-0.549-0.137-0.731 0.046l-3.977 4.526-1.463-0.777v-0.137c0-0.914-0.686-1.6-1.554-1.6zM8.549 15.497c0 0.303-0.246 0.549-0.549 0.549s-0.549-0.246-0.549-0.549v0c0-0.303 0.246-0.549 0.549-0.549s0.549 0.246 0.549 0.549v0zM11.749 24.046h5.303v0.503c0 0.32-0.229 0.549-0.549 0.549h-4.251c-0.274 0-0.503-0.229-0.503-0.549v-0.503zM1.051 24.549c0-0.274 0.274-0.503 0.549-0.503h9.051v0.503c0 0.914 0.731 1.6 1.6 1.6h4.251c0.914 0 1.6-0.686 1.6-1.6v-0.503h9.097c0.274 0 0.503 0.229 0.503 0.503v2.149c0 0.274-0.229 0.549-0.503 0.549h-25.6c-0.274 0-0.549-0.274-0.549-0.549v-2.149z"></path></symbol><symbol id="icon-clock" viewBox="0 0 32 32"><path fill="#212121" style="fill: var(--color3, #212121)" d="M31.314 15.314c0-0.005 0-0.010 0-0.016 0-8.458-6.856-15.314-15.314-15.314s-15.314 6.856-15.314 15.314c0 6.859 4.51 12.665 10.726 14.615l0.108 0.029c0.137 0 0.229-0.046 0.366-0.137 0.137-0.046 0.229-0.183 0.274-0.366l3.84-12.206c1.058-0.003 1.915-0.861 1.915-1.92 0-1.060-0.86-1.92-1.92-1.92-0.297 0-0.578 0.067-0.829 0.188l0.012-0.005-5.12-5.12c-0.117-0.117-0.279-0.189-0.457-0.189-0.357 0-0.646 0.289-0.646 0.646 0 0.179 0.072 0.34 0.189 0.457l5.12 5.12c-0.114 0.235-0.18 0.511-0.18 0.802 0 0.602 0.284 1.137 0.725 1.48l0.004 0.003-3.657 11.703c-5.431-2.020-9.229-7.159-9.229-13.186 0-7.751 6.283-14.034 14.034-14.034s14.034 6.283 14.034 14.034c0 5.684-3.379 10.578-8.237 12.785l-0.088 0.036-0.366-1.874c-0.057-0.3-0.317-0.524-0.63-0.524-0.162 0-0.31 0.060-0.423 0.159l0.001-0.001-3.84 3.429c-0.137 0.118-0.223 0.292-0.223 0.485 0 0.286 0.188 0.529 0.447 0.61l0.005 0.001 4.891 1.6c0.058 0.019 0.125 0.030 0.195 0.030 0.353 0 0.64-0.287 0.64-0.64 0-0.043-0.004-0.085-0.012-0.126l0.001 0.004-0.366-1.829c5.527-2.379 9.326-7.778 9.326-14.065 0-0.005 0-0.011 0-0.016v0.001zM16 14.629c0.353 0 0.64 0.287 0.64 0.64s-0.287 0.64-0.64 0.64v0c-0.353 0-0.64-0.287-0.64-0.64s0.287-0.64 0.64-0.64v0zM18.103 29.486l2.194-1.966 0.594 2.834-2.789-0.914z"></path><path fill="#2196f3" style="fill: var(--color1, #2196f3)" d="M15.36 3.2v1.28c0 0.353 0.287 0.64 0.64 0.64s0.64-0.287 0.64-0.64v-1.28c0-0.353-0.287-0.64-0.64-0.64s-0.64 0.287-0.64 0.64v0zM3.886 14.629c-0.366 0-0.663 0.297-0.663 0.663s0.297 0.663 0.663 0.663h1.28c0.353 0 0.64-0.287 0.64-0.64s-0.287-0.64-0.64-0.64h-1.28zM28.114 15.954c0.353 0 0.64-0.287 0.64-0.64s-0.287-0.64-0.64-0.64h-1.28c-0.353 0-0.64 0.287-0.64 0.64s0.287 0.64 0.64 0.64h1.28z"></path></symbol><symbol id="icon-antenna" viewBox="0 0 32 32"><path fill="#212121" style="fill: var(--color3, #212121)" d="M30.766 22.080l-8.457-8.503 0.96-4.571c0.229 0.046 0.457 0.137 0.777 0.137 0.007 0 0.016 0 0.025 0 1.187 0 2.149-0.962 2.149-2.149s-0.962-2.149-2.149-2.149c-1.187 0-2.149 0.962-2.149 2.149 0 0.245 0.041 0.481 0.117 0.701l-0.005-0.015-4.983 0.594-8.091-8.137c-0.091-0.091-0.229-0.137-0.366-0.137s-0.274 0.046-0.366 0.137l-1.509 1.509c-0.229 0.229-0.229 0.549 0 0.777l0.823 0.777c-1.129 2.053-1.794 4.499-1.794 7.1 0 4.161 1.7 7.925 4.444 10.635l0.002 0.002-0.046 0.549v6.217h-6.4c-0.014-0-0.030-0-0.046-0-1.464 0-2.651 1.187-2.651 2.651 0 0 0 0 0 0v-0 1.051c0 0.32 0.274 0.549 0.549 0.549h24.549c0.274 0 0.503-0.229 0.503-0.549v-1.051c0-1.463-1.189-2.651-2.651-2.651h-6.4v-2.743c0.899 0.191 1.932 0.3 2.991 0.3 2.586 0 5.020-0.653 7.146-1.803l-0.080 0.039 0.869 0.823c0.091 0.091 0.229 0.137 0.366 0.137s0.274-0.046 0.366-0.137l1.509-1.509c0.229-0.229 0.229-0.549 0-0.777zM23.314 6.217c0.186-0.169 0.434-0.272 0.706-0.272 0.581 0 1.051 0.471 1.051 1.051 0 0.555-0.431 1.010-0.976 1.049l-0.003 0c-0.021 0.002-0.046 0.002-0.072 0.002-0.581 0-1.051-0.471-1.051-1.051 0-0.309 0.133-0.586 0.345-0.779l0.001-0.001zM22.080 9.737l-0.594 2.926-1.189-1.143 1.783-1.783zM21.486 8.823l-1.92 1.92-1.509-1.509 3.429-0.411zM24 28.8c0.914 0 1.6 0.731 1.6 1.6v0.549h-23.451v-0.549c0-0.914 0.686-1.6 1.6-1.6h20.251zM16.549 26.651v1.097h-5.349v-1.097h5.349zM11.2 25.6v-4.069c0-1.28 1.189-2.331 2.651-2.331 1.509 0 2.697 1.051 2.697 2.331v4.069h-5.349zM17.6 23.909v-2.423c0-1.829-1.691-3.383-3.749-3.383-1.326 0-2.56 0.64-3.246 1.783-2.369-2.481-3.827-5.85-3.827-9.559 0-2.319 0.57-4.505 1.578-6.426l-0.036 0.076 18.606 18.743c-1.816 0.94-3.965 1.492-6.242 1.492-1.093 0-2.157-0.127-3.177-0.367l0.094 0.019zM28.891 23.223l-0.731-0.823-19.566-19.657-0.823-0.686 0.777-0.777 7.909 8 13.257 13.12-0.777 0.777z"></path><path fill="#2196f3" style="fill: var(--color1, #2196f3)" d="M13.897 20.251c-0.884 0-1.6 0.716-1.6 1.6s0.716 1.6 1.6 1.6v0c0.884 0 1.6-0.716 1.6-1.6s-0.716-1.6-1.6-1.6v0zM14.263 22.263c-0.101 0.112-0.247 0.183-0.409 0.183-0.303 0-0.549-0.246-0.549-0.549s0.244-0.547 0.546-0.549h0c0.001 0 0.002 0 0.003 0 0.303 0 0.549 0.246 0.549 0.549 0 0.141-0.053 0.269-0.14 0.366l0-0z"></path></symbol><symbol id="icon-envelope" viewBox="0 0 32 32"><path d="M29 4h-26c-1.6 0-3 1.4-3 3v18c0 1.6 1.4 3 3 3h26c1.6 0 3-1.4 3-3v-18c0-1.6-1.4-3-3-3zM29 6h0.4l-13.4 11.6-13.4-11.6h26.4zM29 26h-26c-0.552 0-1-0.448-1-1v0-16.8l13.4 11.6c0.165 0.125 0.374 0.2 0.6 0.2s0.435-0.075 0.602-0.202l-0.003 0.002 13.4-11.8v16.8c0 0.6-0.4 1-1 1z"></path></symbol><symbol id="icon-smartphone" viewBox="0 0 32 32"><path  d="M23 0h-14c-1.6 0-3 1.4-3 3v26c0 1.6 1.4 3 3 3h14c1.6 0 3-1.4 3-3v-26c0-1.6-1.4-3-3-3zM9 2h14c0.6 0 1 0.4 1 1v21h-16v-21c0-0.6 0.4-1 1-1zM23 30h-14c-0.552 0-1-0.448-1-1v0-3h16v3c0 0.6-0.4 1-1 1z"></path><path  d="M10.8 27.4v1.4c-0.4 0.4-1.2 0.4-1.6 0-0.248-0.139-0.413-0.4-0.413-0.7s0.165-0.561 0.409-0.698l0.004-0.002c0.4-0.2 1.2-0.2 1.6 0z"></path></symbol></defs></svg>