<svg aria-hidden="true" version="1.1" xmlns="http://www.w3.org/2000/svg" xmlns:xlink="http://www.w3.org/1999/xlink">
  <defs>
    <symbol id="icon-logo4" viewBox="0 0 106 60">
      <path
        d="M24.1 20.1c-2.4 0-4.3 1.7-4.3 3.9 0 2.1 2 3.8 4.3 3.8 2.4 0 4.4-1.7 4.4-3.8 0-2.2-2-3.9-4.4-3.9ZM56.2 19.9c0-3-1.3-5.8-3.7-8-2.3-2-5.5-3.2-8.9-3.2-3.3 0-6.5 1.2-8.9 3.3-2.3 2-3.6 5-3.6 7.9v16.3s25-2.5 25-16.3ZM11 41.5c0 2.1 1 4 2.6 5.5a9.4 9.4 0 0 0 6.1 2.3c2.4 0 4.6-.8 6.2-2.3a7.4 7.4 0 0 0 2.6-5.4V30.2S11 31.9 11 41.5Zm8.7 2c-.4 0-.9 0-1.2-.3-.4-.2-.7-.5-.9-.9-.1-.3-.2-.8-.1-1.1 0-.4.3-.8.6-1 .3-.4.8-.6 1.2-.6h1.3c.4.2.8.5 1 .8a1.9 1.9 0 0 1-.2 2.6l-.8.4-.9.2ZM37.4 42.5h-1.7v1.7H35V40h2.7v.8h-1.9v1h1.7v.8Zm4.2-.3c0 .4 0 .8-.2 1a1.7 1.7 0 0 1-1.6 1c-.3 0-.6 0-1-.2l-.6-.7-.2-1.1V42c0-.4 0-.8.2-1.1a1.7 1.7 0 0 1 1.6-1c.4 0 .7 0 1 .2.2.2.5.5.6.8.2.3.2.7.2 1v.3Zm-.8-.2c0-.5-.1-.8-.3-1a.8.8 0 0 0-.7-.4c-.3 0-.5.1-.7.4l-.2 1v.2c0 .4 0 .7.2 1 .2.2.4.3.7.3.3 0 .6 0 .7-.3.2-.2.2-.6.3-1V42Zm3.7 1s0-.2-.2-.3l-.6-.3c-.3 0-.6-.2-.7-.3-.5-.2-.8-.6-.8-1l.2-.6c.2-.2.3-.4.6-.5l.8-.1.8.1.6.5.2.7h-.9c0-.2 0-.3-.2-.5a.8.8 0 0 0-.5-.1l-.5.1-.2.4c0 .1 0 .2.2.3l.6.3c.5.1.9.3 1.1.5.3.3.4.5.4.9s-.2.6-.4.9c-.3.2-.7.3-1.2.3-.3 0-.6 0-.9-.2l-.6-.5-.2-.7h.9c0 .4.3.7.8.7.2 0 .4 0 .5-.2l.2-.3Zm4.7-2.3h-1.3v3.5H47v-3.5h-1.3v-.8h3.5v.8Zm3 1.7h-1.6v1.1h2v.7h-3V40h3v.8h-2v1h1.7v.7Zm2.4.2H54v1.6h-.8V40h1.5c.6 0 1 .2 1.2.4.3.2.4.5.4 1 0 .2 0 .5-.2.7 0 .2-.3.3-.5.4l.9 1.8h-1l-.8-1.6ZM54 42h.8l.5-.1.1-.5-.1-.5-.6-.1H54v1.2Zm5.4.8v1.5h-1V40h1.8l.8.2.6.5.2.8c0 .4-.2.7-.5 1-.3.2-.7.3-1.2.3h-.7Zm0-.7h.8c.2 0 .4 0 .5-.2l.2-.4c0-.2 0-.4-.2-.5a.7.7 0 0 0-.5-.2h-.8V42Zm5.5.4h-1.7v1.1h2v.7h-2.8V40H65v.8h-2v1h1.7v.7Zm4.1-1.7h-1.3v3.5h-.9v-3.5h-1.3v-.8H69v.8Zm3 1.7h-1.6v1.1h2v.7h-2.9V40h2.9v.8h-2v1H72v.7Zm2.5.2h-.7v1.6h-1V40h1.7c.5 0 .9.2 1.1.4.3.2.4.5.4 1l-.1.7-.6.4 1 1.8h-1l-.8-1.6Zm-.7-.7h.7l.5-.1.2-.5c0-.2 0-.4-.2-.5l-.5-.1h-.7v1.2Zm5.1 1.2-.1-.4-.7-.3c-.3 0-.5-.2-.7-.3-.5-.2-.7-.6-.7-1 0-.3 0-.5.2-.6 0-.2.3-.4.5-.5l.8-.1.9.1.5.5.2.7h-.9c0-.2 0-.3-.2-.5a.8.8 0 0 0-.5-.1l-.5.1-.2.4.3.3.6.3c.5.1.8.3 1 .5.3.3.4.5.4.9s-.1.6-.4.9c-.3.2-.7.3-1.1.3-.4 0-.7 0-1-.2l-.6-.5-.2-.7h1c0 .4.2.7.8.7.2 0 .3 0 .5-.2l.1-.3Z">
      </path>
    </symbol>
    <symbol id="icon-logo6" viewBox="0 0 106 60">
      <path
        d="M53.4 27.4a3 3 0 0 1-.6-2v-2.9c0-.8.2-1.5.6-2 .4-.4 1.1-.7 2-.7 1 0 1.7.2 2 .6.5.5.7 1.1.6 1.7v.7h-1.6V21.5c0-.2-.2-.3-.3-.4a1 1 0 0 0-.6-.2 1 1 0 0 0-.6.2c-.2 0-.3.2-.3.4v4.2l.1 1 .4.2.4.1c.2 0 .4 0 .6-.2l.2-.4V25H58v.7c0 .6-.1 1.2-.5 1.8-.4.4-1 .6-2 .6s-1.7-.2-2-.7ZM60.3 27.4c-.5-.4-.7-1-.7-2v-3c0-.8.2-1.5.7-2 .4-.3 1-.6 2-.6s1.7.3 2.1.7c.4.4.6 1 .6 2v3c0 .8-.2 1.5-.6 2-.4.4-1.1.6-2 .6-1 0-1.7-.2-2.1-.7Zm2.8-.7.2-.9v-3.7c0-.3 0-.6-.2-.9l-.3-.2a1 1 0 0 0-.5 0 1 1 0 0 0-.4 0l-.3.2c-.2.3-.3.6-.2.9v3.7c0 .3 0 .6.2 1l.3.2a1.2 1.2 0 0 0 .9 0l.3-.3ZM67 20h1.8l1.3 5.5 1.4-5.6h1.7l.1 8.1h-1.2l-.2-5.6-1.3 5.6h-1l-1.3-5.6L68 28h-1.3l.2-8ZM75.3 20h2.8c1.6 0 2.4.7 2.4 2.2 0 1.5-.9 2.2-2.5 2.2h-1V28h-1.7v-8Zm2.4 3.4h.5l.4-.3.3-.9-.1-.7-.1-.2-.3-.2c-.2-.1-.5-.2-.7-.1H77v2.4h.7ZM83 20h1.7l2 8H85l-.3-1.9H83l-.4 1.9H81l2-8Zm1.5 5.2-.7-3.4-.6 3.4h1.3ZM88.1 20h1.2l2.3 4.5V20H93V28h-1.1l-2.3-4.8V28H88v-8ZM96.3 25l-1.9-5H96l1.2 3.1 1-3.2h1.6l-1.9 5V28h-1.6v-3ZM56 31.5v.5h-1.3v3.2H54V32h-1.4v-.5H56ZM60.4 35.2h-.7l-.4-1h-1.9l-.4 1H56.4l1.7-3.7h.6l1.7 3.7ZM57.6 34h1.6l-.7-1.5-.1-.4v.2l-.1.2-.7 1.5ZM63.3 34.9h.3a2 2 0 0 0 .6-.1l.2-.1v-.9H63.6v-.3h1.3v1.4a2.6 2.6 0 0 1-1.1.4h-.5c-.3 0-.6 0-.9-.2a2 2 0 0 1-.7-.3l-.4-.6-.2-.8c0-.3 0-.5.2-.8 0-.2.2-.4.4-.6.2-.1.4-.3.7-.3a2.9 2.9 0 0 1 1.4-.2 2.3 2.3 0 0 1 .7.3l.3.2-.1.2h-.4L64 32a2.1 2.1 0 0 0-.7-.2 2 2 0 0 0-.7.2l-.5.2-.3.5V34c0 .2.2.4.4.5a1.5 1.5 0 0 0 1.1.4ZM68.7 34.8h1.9v.4h-2.4v-3.7h.5v3.3ZM72.5 35.2H72v-3.7h.6v3.7ZM74.7 31.5v.1l2.6 2.8V31.5h.5v3.7h-.5l-2.5-2.8V35.3h-.5v-3.7h.3ZM82 31.5v.4h-2v1.3h1.6v.4H80v1.2h2v.4h-2.6v-3.7H82ZM21.2 8.7 47 15V37l-25.8-6.3V8.7Zm-1.7-2V32L48.6 39V14l-29-7.2Z" />
      <path d="M35.1 50.7 6 43.6V18.4l29.1 7.2v25Z" />
      <path
        d="m20 8.4 25.4 6.2L34.6 24 9.2 17.7 20 8.4Zm-.5-1.6L6 18.4l29.1 7.2 13.5-11.7-29-7.1ZM36.7 49.3l12-10.3-12-2.9v13.2Z">
      </path>
    </symbol>
    <symbol id="icon-logo5" viewBox="0 0 106 60">
      <path
        d="M26.8 44.7c.2.3.3.7.3 1l-.1.7-.4.5c-.5.4-1.1.5-1.7.5H22v-6.2h2.8c.6 0 1.2.1 1.6.4l.4.5.2.7c0 .3-.1.7-.4 1l-.8.4c.4 0 .7.3 1 .5Zm-3.4-.9h1.2c.2 0 .5 0 .7-.2l.2-.3.1-.3v-.3l-.3-.3c-.2-.2-.5-.2-.8-.2h-1.1v1.6Zm2 2.4.3-.3v-.7l-.2-.3c-.3-.2-.6-.2-.9-.2h-1.2v1.7h1.2c.3 0 .6 0 .9-.2ZM32.6 47.4 31 45h-.6v2.4H29v-6.2h2.6c.7 0 1.3.2 1.8.5.4.4.6.8.6 1.3s-.1 1-.4 1.3c-.3.3-.8.5-1.2.6l1.7 2.5h-1.5Zm-2.2-3.3h1.1c.8 0 1.2-.3 1.2-.9l-.1-.4a1 1 0 0 0-.2-.3l-.9-.3h-1.1v2ZM40 46.2h-2.7l-.5 1.2h-1.4l2.5-6.1h1.5l2.5 6.1h-1.4l-.5-1.2Zm-.4-1-1-2.6-1 2.6h2ZM49.3 47.4H48l-3-4.2v4.2h-1.4v-6.2h1.3l3 4.2v-4.2h1.4v6.2ZM57 46c-.2.4-.7.8-1.2 1-.6.3-1.2.4-1.9.4h-2.4v-6.2H54c.7 0 1.3.1 2 .4.4.2.9.6 1.1 1a3.4 3.4 0 0 1 0 3.3Zm-1.5-.2a2.2 2.2 0 0 0 0-3c-.5-.4-1-.6-1.7-.5h-1v4h1c.6 0 1.2-.2 1.7-.5ZM40.9 6.8s17.4 6 17 14.7v14.8s-17.4-6-17-14.8V6.8ZM73.5 32.8c3.3-2 7-3.3 11-3.7v-4.6a22.4 22.4 0 0 0-11 8.3Z" />
      <path d="M71.5 34.2c2.7-5 7.4-8.8 13-10.7V10.2s-24.8 8.6-24.3 21v21l2.9-1.1v-2c.6-5.8 3.6-11.1 8.4-14.9Z" />
      <path
        d="M69.1 42c.2-1.4.4-2.9.9-4.3a19.4 19.4 0 0 0-5.3 12.7l4.8-2.3c-.4-2-.6-4-.4-6ZM70.1 42a19 19 0 0 0 .3 5.6c6.8-3.7 14.4-9.5 14.1-16.4v-.6c-4.8.5-9.4 2.4-12.9 5.5-.8 2-1.3 4-1.5 6Z">
      </path>
    </symbol>
    <symbol id="icon-logo3" viewBox="0 0 106 60">
      <path
        d="m36.4 49.1.3.2-.6.4-.9.2c-.3 0-.5 0-.8-.2l-.6-.3-.4-.6a2 2 0 0 1 0-1.5l.4-.6c.2-.1.4-.3.7-.3a2.6 2.6 0 0 1 1.6 0l.6.3-.2.2H36.2l-.1-.1a1.5 1.5 0 0 0-.8-.2l-.6.1-.5.3c0 .2-.2.3-.3.5v1.2l.3.4.5.3H35.6a1.3 1.3 0 0 0 .7-.3h.1ZM42.7 48l-.1.8-.5.6-.6.3c-.5.2-1.1.2-1.7 0a2 2 0 0 1-.6-.3l-.4-.6a2 2 0 0 1 0-1.5c0-.2.2-.4.4-.6l.6-.3c.6-.2 1.2-.2 1.7 0l.6.3a1.7 1.7 0 0 1 .6 1.4Zm-.6 0v-.5a1.2 1.2 0 0 0-.8-.8 2 2 0 0 0-1.2 0l-.5.3-.3.5v1.1a1.2 1.2 0 0 0 .8.8h1.2l.4-.3c.2-.1.3-.3.3-.5l.1-.5ZM47 48.7v.1l.1-.1v-.2l1.5-2.2H49.3v3.5h-.5V47l-1.4 2.2-.2.1h-.2L45.3 47V49.9h-.5v-3.5h.6l1.4 2.2.1.2ZM52.2 48.5v1.3h-.5v-3.5h1.9c.2 0 .3.2.5.3l.2.3.1.5v.4l-.4.4-.4.2-.7.1h-.7Zm0-.4h1.1l.3-.2.2-.2V47c0-.1 0-.2-.2-.3l-.7-.2h-.7v1.5ZM59.6 49.8H59l-.4-1h-1.9l-.4 1H55.7l1.6-3.5h.6l1.7 3.5Zm-2.7-1.3h1.5l-.6-1.4-.2-.4v.4l-.7 1.4ZM62 46.3l2.4 2.7v-2.7h.5v3.5h-.4L62 47v2.7h-.5v-3.5h.4ZM68.9 48.4v1.4h-.5v-1.4l-1.6-2.1h.7l1 1.5a2.1 2.1 0 0 1 .1.3l.1-.2.1-.1 1-1.4v-.1h.6L69 48.4ZM46.7 40.3h.8a20 20 0 0 0 8.9-6.7c2.2-3 3.3-6.4 3.2-10l-4-3.4a18 18 0 0 1-1.2 11.1 21 21 0 0 1-7.7 9Z" />
      <path
        d="M45.3 40v.1c3.8-2.3 6.6-5.5 8.2-9.2 1.6-3.7 1.8-7.8.7-11.6l-5.7-5A21.5 21.5 0 0 1 45.3 40ZM64.9 27.8a18 18 0 0 1-6.8 10l-3.3 2a20 20 0 0 0 7.6-3.8c2-1.7 3.8-3.8 4.8-6.1l-2.3-2Z" />
      <path
        d="m64 27.3-3.4-3c0 3.4-1.1 6.6-3.1 9.4-2 2.8-4.8 5.1-8.2 6.7l2.3-.1c3.1-1.1 5.9-3 8-5.2a17 17 0 0 0 4.3-7.8ZM45.8 12.2l-4-3.5a18.7 18.7 0 0 0-8.8 6 15 15 0 0 0-3.3 9.3c0 3.7 1.4 7.2 4 10C36.3 37 40 39 44 40a21.2 21.2 0 0 0 1.7-27.7ZM73.1 26.7c0-4.3-2-8.5-5.5-11.5a20.5 20.5 0 0 0-20-3.8l24.3 21.2c.8-1.9 1.2-3.9 1.2-5.9Z">
      </path>
    </symbol>
    <symbol id="icon-logo2" viewBox="0 0 106 60">
      <path
        d="M50.1 6H49a24 24 0 0 0-1.3 0C44 6 40.4 7 37.1 8.5l-.5.2V31l1-.4a38.4 38.4 0 0 1 11-1.9v3h-1.1a32.4 32.4 0 0 0-13.7 3.8V7.1a29.7 29.7 0 0 1 15-4.1h.5a29.2 29.2 0 0 1 5.2.7v2.8c-1.2-.3-2.4-.4-3.6-.5H50Zm5 2.9h2A31.5 31.5 0 0 0 72.2 5v28a29.8 29.8 0 0 1-20.6 3.4v-28a23 23 0 0 0 3.6.5Zm14.2.2-1 .3-2.8.9a34.3 34.3 0 0 1-10.2 1h-.8V34h.6l2 .2A26.9 26.9 0 0 0 69 31.4l.4-.2V9.1Z" />
      <path
        d="M35.7 45.2a1.5 1.5 0 0 0-1-.4H34a1.5 1.5 0 0 0-1 1.5v3.8c0 .3 0 .6.2.8 0 .2.2.4.3.5l.6.3h1.1a1.6 1.6 0 0 0 1-1.5v-.4h-1v.6l-.2.2-.2.2h-.2a.5.5 0 0 1-.5-.2L34 50v-3.6l.1-.5a.5.5 0 0 1 .5-.3.5.5 0 0 1 .4.3c.2.1.2.3.2.5v.3h1v-.4a1.8 1.8 0 0 0-.5-1.2ZM41.6 45.2a1.8 1.8 0 0 0-1.7-.3c-.2 0-.4.1-.5.3l-.4.5-.1.7v3.7l.1.7c0 .2.2.4.4.5.1.2.3.3.5.3a1.7 1.7 0 0 0 1.2 0c.2 0 .4-.1.5-.3a1.6 1.6 0 0 0 .5-1.2v-3.7l-.1-.7c0-.2-.2-.4-.4-.5Zm-.4 4.9a.7.7 0 0 1-.2.5.7.7 0 0 1-1 0 .7.7 0 0 1-.2-.5v-3.7a.7.7 0 0 1 .2-.5.7.7 0 0 1 1 0 .7.7 0 0 1 .2.5v3.7ZM49.4 51.7v-6.9h-1l-1.2 3.7-1.3-3.7h-1v6.9h1v-4.2l1 3h.5l1-3v4.2h1ZM55 45.3l-.6-.4h-2.2v6.8h1V49h.5c.3 0 .6 0 .9-.2l.5-.5.3-.6a4.9 4.9 0 0 0 0-1.8l-.4-.6Zm-.5 2-.1.5-.3.2a1 1 0 0 1-.5 0h-.4v-2.3h.5l.4.1.3.3v1.3ZM59.6 44.8h-.8l-1.5 6.9h1l.3-1.5h1.3l.3 1.5h1l-1.6-6.9Zm-.9 4.5.5-2.5.5 2.5h-1ZM66 49l-1.6-4.2h-.9v6.9h1v-4.1l1.5 4.1h1v-6.9h-1V49ZM72 44.8l-.8 2.7-.9-2.7h-1l1.4 4v2.9h1v-3l1.3-3.9h-1ZM33 53.6h.5V55h.3v-1.4h.5v-.2H33v.2ZM37 53.4l-.6 1.6h.3l.1-.4h.7l.1.4h.4l-.7-1.6H37Zm0 1 .1-.7.3.6h-.5ZM41 54.4h.3v.2l-.4.1a.4.4 0 0 1-.3-.1l-.2-.4c0-.4.2-.6.5-.6a.3.3 0 0 1 .4.3h.3c0-.4-.3-.6-.7-.6l-.6.2a.8.8 0 0 0-.2.7c0 .2 0 .4.2.6a.8.8 0 0 0 .6.2c.3 0 .5 0 .7-.3v-.6h-.7v.3ZM45 53.4h-.4V55h1.1v-.3H45v-1.3ZM48.3 53.4H48V55h.3v-1.6ZM51.6 54.4l-.6-1h-.3V55h.3v-1l.6 1h.3v-1.6h-.3v1ZM54.6 54.3h.8V54h-.8v-.4h.9v-.2h-1.2V55h1.2v-.3h-.9v-.4ZM62 54h-.7v-.6H61V55h.3v-.7h.6v.7h.3v-1.6H62v.6ZM65 54.3h.7V54H65v-.4h.9v-.2h-1.2V55h1.2v-.3H65v-.4ZM69 54.3c.3 0 .4-.2.4-.5a.4.4 0 0 0-.1-.3.9.9 0 0 0-.5-.1h-.7V55h.4v-.7h.2l.1.2.4.5h.4l-.2-.3-.4-.4Zm-.3-.3h-.2v-.4h.5a.2.2 0 0 1 0 .4 1 1 0 0 1-.3 0ZM72.1 54.3h.8V54h-.8v-.4h.9v-.2h-1.2V55H73v-.3h-.9v-.4Z">
      </path>
    </symbol>
    <symbol id="icon-logo1" viewBox="0 0 106 60">
      <path
        d="m38 7 7 6.6H32v32.2h34V33.5l7 6.6V7H38Zm27.7 25.7L45.8 14h19.9v18.8Zm-6.2 8.4H37.4V19.5h1.5v20.1h20.6v1.5Zm-16.9 9-.8 1.7L41 50h-.7l1.2 2.2v1.4h.6v-1.4l1.2-2.2h-.7Zm1 3.6.3-.9h1.4l.3.9h.6L45 50h-.6L43 53.7h.6Zm1-2.8.5 1.4h-1l.5-1.4Zm3.3 1.3-.2.5c0 .3.1.5.4.7.2.2.4.3.8.3.3 0 .6 0 .9-.3l.2.3h.7l-.5-.7c.2-.2.3-.6.3-1H50c0 .2 0 .4-.2.6l-.7-.8.3-.2.3-.3a.8.8 0 0 0-.1-1 .9.9 0 0 0-.6-.2 1 1 0 0 0-.7.2c-.2.2-.3.4-.3.7l.1.3.3.5a2 2 0 0 0-.5.4Zm1.6.8a1 1 0 0 1-.6.2l-.4-.1a.5.5 0 0 1-.2-.4c0-.2.1-.4.3-.5h.1l.8.8Zm-.7-1.5-.2-.6v-.3H49.3l.1.3-.1.3-.4.3Zm5.8 1.9c.3-.2.4-.5.4-.9h-.6c0 .3 0 .4-.2.5-.1.2-.3.2-.6.2a.7.7 0 0 1-.6-.3l-.2-.9v-.3c0-.4.1-.7.3-.9.1-.2.3-.2.6-.2l.5.1.2.6h.6c0-.4-.1-.7-.4-1l-1-.2c-.2 0-.5 0-.7.2l-.5.5a2 2 0 0 0-.2 1v.3c0 .3 0 .6.2.8.1.3.3.5.5.6l.7.2c.5 0 .8-.1 1-.3Zm3.7-.5.1-1v-.1c0-.4 0-.7-.2-1a1.4 1.4 0 0 0-1.2-.7c-.3 0-.6 0-.8.2-.2.1-.4.3-.5.6-.2.2-.2.5-.2.9v.2c0 .3 0 .6.2.9 0 .3.3.5.5.6l.8.2c.3 0 .5 0 .7-.2.3-.1.4-.4.6-.6Zm-.7-2 .2.9v.2c0 .4 0 .7-.2.9l-.6.3a.7.7 0 0 1-.7-.3l-.2-1v-.1c0-.4 0-.7.2-1l.7-.2c.2 0 .4 0 .6.3Z">
      </path>
    </symbol>
    <symbol id="icon-linkedin" viewBox="0 0 32 32">
      <path
        d="M32 32v-11.68c0-5.76-1.28-10.24-8-10.24-3.2 0-5.28 1.76-6.24 3.52v-3.040h-6.56v21.44h6.56v-10.56c0-2.88 0.48-5.44 4-5.44 3.36 0 3.52 3.2 3.52 5.6v10.4h6.72zM0.48 10.56h6.72v21.44h-6.72v-21.44zM3.84 0c-2.080 0-3.84 1.6-3.84 3.84 0 2.080 1.6 3.84 3.84 3.84 2.121 0 3.84-1.719 3.84-3.84s-1.719-3.84-3.84-3.84v0z">
      </path>
    </symbol>
    <symbol id="icon-facebook" viewBox="0 0 32 32">
      <path
        d="M21.28 5.28h3.040v-5.12l-4.32-0.16c-4.16 0-7.040 2.72-7.040 7.52v4.48h-4.96v5.76h4.8v14.24h5.6v-14.4h4.48l0.8-5.6h-5.28v-3.84c0-1.6 0.48-2.88 2.72-2.88z">
      </path>
    </symbol>
    <symbol id="icon-twitter" viewBox="0 0 32 32">
      <path
        d="M32 6.080c-1.12 0.48-2.4 0.8-3.84 0.96 1.347-0.785 2.365-2.010 2.867-3.475l0.013-0.045c-1.28 0.8-2.56 1.28-4.16 1.6-1.201-1.288-2.908-2.091-4.803-2.091-3.623 0-6.56 2.937-6.56 6.56 0 0.515 0.059 1.015 0.171 1.496l-0.009-0.044c-5.44-0.32-10.24-2.88-13.44-6.88-0.562 0.947-0.894 2.088-0.894 3.307 0 2.289 1.173 4.305 2.95 5.478l0.025 0.015c-1.117-0.011-2.163-0.306-3.072-0.817l0.032 0.017c0 3.2 2.24 5.92 5.28 6.4-0.553 0.173-1.188 0.272-1.847 0.272-0.422 0-0.835-0.041-1.234-0.119l0.040 0.007c0.96 2.72 3.2 4.64 6.24 4.64-2.212 1.759-5.047 2.822-8.129 2.822-0.575 0-1.141-0.037-1.697-0.109l0.066 0.007c2.88 1.92 6.4 2.72 10.080 2.72 0.003 0 0.007 0 0.011 0 10.25 0 18.56-8.31 18.56-18.56 0-0.225-0.004-0.449-0.012-0.672l0.001 0.032c1.44-0.96 2.4-2.080 3.36-3.36z">
      </path>
    </symbol>
    <symbol id="icon-instagram" viewBox="0 0 32 32">
      <path
        d="M32 9.44c0-1.6-0.32-2.88-0.8-3.84-0.32-1.12-0.96-2.080-1.76-2.88-0.79-0.823-1.751-1.475-2.826-1.901l-0.054-0.019c-3.142-0.321-6.79-0.504-10.48-0.504s-7.338 0.183-10.934 0.541l0.454-0.037c-1.12 0.48-2.080 1.12-2.88 1.92-0.746 0.756-1.342 1.661-1.741 2.666l-0.019 0.054c-0.48 1.12-0.96 2.24-0.96 4.16-0.035 1.038-0.056 2.258-0.056 3.482 0 4.808 0.311 9.543 0.914 14.186l-0.058-0.548c0.418 1.059 1.014 1.964 1.761 2.721l-0.001-0.001c0.79 0.823 1.751 1.475 2.826 1.901l0.054 0.019c0.96 0.32 2.080 0.64 3.84 0.64 1.251 0.048 2.721 0.075 4.196 0.075 4.553 0 9.045-0.26 13.463-0.765l-0.54 0.050c2.227-0.846 3.954-2.573 4.781-4.744l0.019-0.056 0.64-3.84c0.173-2.39 0.272-5.179 0.272-7.99 0-1.804-0.041-3.599-0.121-5.384l0.009 0.254zM29.12 22.4c0 1.6-0.32 2.4-0.64 3.040-0.48 1.44-1.6 2.56-3.040 3.040-0.48 0.16-1.28 0.48-2.88 0.48-1.382 0.061-3.002 0.095-4.631 0.095-4.004 0-7.959-0.209-11.856-0.616l0.487 0.041c-0.688-0.254-1.276-0.635-1.76-1.12l-0-0c-0.48-0.64-0.96-1.28-1.12-1.92-0.32-0.48-0.64-1.44-0.64-3.040-0.032-1.008-0.051-2.194-0.051-3.384 0-4.389 0.251-8.718 0.739-12.976l-0.049 0.52c0.16-0.64 0.64-1.28 1.12-1.76 0.48-0.64 1.12-0.96 1.76-1.28 0.64-0.16 1.6-0.48 3.2-0.48 1.312-0.055 2.851-0.086 4.397-0.086 3.974 0 7.9 0.205 11.767 0.606l-0.484-0.041c0.8 0.32 1.44 0.64 1.92 1.28 0.48 0.48 0.96 1.12 1.12 1.76 0.32 0.64 0.48 1.44 0.64 3.040 0.116 1.913 0.182 4.149 0.182 6.4s-0.066 4.487-0.196 6.706l0.014-0.306z">
      </path>
      <path
        d="M16 7.84c-0.342-0.051-0.738-0.080-1.14-0.080-4.507 0-8.16 3.653-8.16 8.16s3.653 8.16 8.16 8.16c0.402 0 0.797-0.029 1.184-0.085l-0.044 0.005c3.763-0.776 6.552-4.062 6.552-8s-2.789-7.224-6.499-7.991l-0.053-0.009zM16 21.28c-2.916 0-5.28-2.364-5.28-5.28s2.364-5.28 5.28-5.28v0c2.916 0 5.28 2.364 5.28 5.28s-2.364 5.28-5.28 5.28v0zM26.56 7.52c0 1.060-0.86 1.92-1.92 1.92s-1.92-0.86-1.92-1.92v0c0-1.060 0.86-1.92 1.92-1.92s1.92 0.86 1.92 1.92v0z">
      </path>
    </symbol>
    <symbol id="icon-astronaut" viewBox="0 0 32 32">
      <path fill="#2196f3" style="fill: var(--color1, #2196f3)"
        d="M32 4.526c-0.091-0.183-0.274-0.32-0.457-0.366l-1.92-0.274-0.823-1.737c-0.183-0.366-0.777-0.366-0.96 0l-0.914 1.737-1.829 0.274c-0.265 0.042-0.465 0.269-0.465 0.542 0 0.144 0.055 0.275 0.146 0.372l-0-0 1.371 1.371-0.32 1.874c-0.002 0.015-0.002 0.033-0.002 0.051 0 0.303 0.246 0.549 0.549 0.549 0.084 0 0.163-0.019 0.234-0.052l-0.003 0.001 1.691-0.914 1.691 0.914c0.068 0.032 0.147 0.051 0.231 0.051 0.303 0 0.549-0.246 0.549-0.549 0-0.018-0.001-0.036-0.003-0.053l0 0.002-0.32-1.92 1.371-1.371c0.183-0.091 0.229-0.32 0.137-0.503zM29.531 5.851c-0.137 0.137-0.183 0.32-0.183 0.457l0.183 1.143-1.006-0.549c-0.067-0.032-0.146-0.050-0.229-0.050s-0.162 0.018-0.232 0.051l0.003-0.001-1.006 0.549 0.183-1.143c0-0.137 0-0.32-0.137-0.457l-0.823-0.777 1.097-0.183c0.183 0 0.32-0.137 0.457-0.274l0.457-1.006 0.503 0.96c0.091 0.137 0.229 0.274 0.411 0.274l1.097 0.183-0.777 0.777zM26.149 20.526h-1.097v1.051h1.097v-1.006zM26.149 22.674h-1.097v1.051h1.097v-1.051zM27.2 21.577h-1.051v1.097h1.051v-1.097zM25.051 21.577h-1.051v1.097h1.051v-1.097zM22.4 26.377h-1.051v1.097h1.051v-1.097zM22.4 28.526h-1.051v1.051h1.051v-1.051zM23.451 27.429h-1.051v1.097h1.051v-1.097zM21.349 27.429h-1.097v1.097h1.097v-1.097zM16 24.229h-1.051v1.097h1.051v-1.097zM16 26.377h-1.051v1.097h1.051v-1.097zM17.051 25.326h-1.051v1.051h1.051v-1.051zM14.949 25.326h-1.097v1.051h1.097v-1.051zM5.851 6.126h-1.051v1.051h1.051v-1.051zM5.851 8.229h-1.051v1.097h1.051v-1.097z">
      </path>
      <path fill="#2196f3" style="fill: var(--color1, #2196f3)"
        d="M6.949 7.177h-1.097v1.097h1.097v-1.097zM4.8 7.177h-1.051v1.097h1.051v-1.097z"></path>
      <path fill="#212121" style="fill: var(--color3, #212121)"
        d="M24.686 14.171c-0.266-0.377-0.668-0.643-1.132-0.73l-0.011-0.002c-0.457-0.046-0.96 0.091-1.371 0.366l-1.234 0.96-1.92 1.417-1.371-0.549c2.403-1.128 4.037-3.528 4.037-6.309 0-3.81-3.067-6.904-6.867-6.948l-0.004-0c-3.818 0.025-6.904 3.127-6.904 6.948 0 1.392 0.409 2.689 1.114 3.776l-0.016-0.027h-3.063l-3.2 1.646-1.92 0.914h-0.091c-0.524 0.317-0.869 0.884-0.869 1.531 0 0.985 0.799 1.784 1.784 1.784 0.338 0 0.653-0.094 0.922-0.257l-0.008 0.004 1.371-0.731 2.286-1.143h1.371l-5.394 5.349-1.371 1.371c-0.286 0.296-0.462 0.699-0.462 1.143s0.176 0.847 0.462 1.143l-0-0c0.3 0.313 0.722 0.507 1.189 0.507s0.889-0.194 1.188-0.507l0.001-0.001 1.371-1.28 1.691-1.28 0.914 0.914-1.783 1.737-1.28 1.371c-0.299 0.298-0.484 0.71-0.484 1.166s0.185 0.868 0.484 1.166l0 0c0.305 0.302 0.725 0.488 1.189 0.488s0.883-0.186 1.189-0.488l3.428-3.428 1.006-0.96 5.166-5.714 3.474 0.503c0.041 0.012 0.088 0.019 0.137 0.019s0.096-0.007 0.141-0.020l-0.004 0.001 0.046-0.046h0.046l3.2-2.149 0.046-0.046h0.046l1.28-1.234c0.345-0.326 0.559-0.786 0.559-1.297 0-0.388-0.124-0.747-0.334-1.040l0.004 0.005zM2.194 17.783c-0.183 0.091-0.366 0.091-0.594 0-0.264-0.114-0.445-0.373-0.445-0.673 0-0.225 0.101-0.426 0.261-0.56l0.001-0.001 1.28-0.64 0.32 0.914 0.137 0.457-0.96 0.457zM5.669 15.954l-1.554 0.777-0.274-0.731-0.183-0.549 2.011-1.006v1.554zM20.754 9.326c0 0.914-0.183 1.783-0.594 2.56l-4.16-1.92c-0.041-0.569-0.336-1.061-0.771-1.368l-0.006-0.004 1.463-4.846c2.377 0.731 4.114 2.971 4.114 5.577zM9.006 9.326c0.032-3.232 2.66-5.841 5.897-5.841 0.226 0 0.448 0.013 0.667 0.037l-0.027-0.002-1.417 4.709c-0.027-0.001-0.059-0.002-0.091-0.002-1.010 0-1.829 0.819-1.829 1.829 0 0.001 0 0.002 0 0.002v-0c-0.013 0.081-0.020 0.175-0.020 0.271 0 1.010 0.819 1.829 1.829 1.829 0.779 0 1.444-0.487 1.707-1.172l0.004-0.012 3.84 1.783c-1.088 1.432-2.791 2.347-4.709 2.347-3.23 0-5.854-2.597-5.897-5.818l-0-0.004zM14.949 10.103c0 0.457-0.366 0.823-0.823 0.823s-0.777-0.366-0.777-0.823 0.32-0.777 0.777-0.777 0.823 0.366 0.823 0.777zM2.514 25.189c-0.229 0.183-0.64 0.183-0.869 0-0.131-0.11-0.215-0.274-0.215-0.457s0.083-0.347 0.214-0.456l0.001-0.001 0.96-0.914 0.869 0.823-1.006 0.96zM5.714 28.846c-0.229 0.274-0.594 0.274-0.823 0-0.102-0.107-0.165-0.252-0.165-0.411s0.063-0.305 0.166-0.412l0.914-0.914 0.457 0.366 0.457 0.457-1.006 0.914zM9.189 25.417l-1.737 1.737-0.457-0.366-0.411-0.457 1.783-1.783 0.091-0.137v-0.183l0.046-0.091v-0.183l-0.137-0.137v-0.046l-1.6-1.6h-0.091l-0.091-0.091h-0.091l-0.091-0.046h-0.183l-0.091 0.046h-0.183l-1.737 1.371-0.914-0.914 2.377-2.377 4.389 4.297-0.914 0.914zM16.046 18.377h-0.046c-0.019-0.002-0.040-0.004-0.062-0.004-0.136 0-0.259 0.054-0.349 0.141l0-0v0.046l-4.8 5.211-4.343-4.251 2.834-2.834c0.088-0.097 0.141-0.226 0.141-0.367 0-0.288-0.222-0.525-0.505-0.547l-0.002-0h-2.24v-1.6h3.109c1.266 1.312 3.039 2.127 5.003 2.127 0.445 0 0.881-0.042 1.303-0.122l-0.043 0.007 0.137 0.091 2.423 0.914 0.137 0.777 0.183 0.914-2.971-0.457zM20.069 18.56l-0.32-1.554 1.463-1.051 0.366 0.457 0.549 0.777-2.057 1.371zM23.817 15.726l-0.823 0.823-0.914-1.28 0.823-0.594c0.137-0.137 0.32-0.183 0.503-0.183 0.372 0.037 0.661 0.349 0.661 0.728 0 0.197-0.078 0.375-0.204 0.507l0-0z">
      </path>
      <path fill="#212121" style="fill: var(--color3, #212121)"
        d="M13.623 18.56l-2.194-2.149c-0.229-0.229-0.549-0.229-0.777 0l-2.149 2.149c-0.087 0.097-0.14 0.225-0.14 0.366s0.053 0.269 0.14 0.366l-0-0 2.149 2.149c0.099 0.1 0.237 0.161 0.389 0.161s0.289-0.062 0.389-0.161v0l2.149-2.149c0.087-0.097 0.14-0.225 0.14-0.366s-0.053-0.269-0.14-0.366l0 0zM11.063 20.297l-1.371-1.371 1.371-1.371 1.371 1.371-1.371 1.371zM17.143 5.029l-0.229 1.097c0.046 0 1.737 0.457 1.737 2.149h1.006c0-2.057-1.646-2.971-2.56-3.2zM19.703 9.326h-1.051v1.051h1.006v-1.051z">
      </path>
    </symbol>
    <symbol id="icon-diagram" viewBox="0 0 32 32">
      <path fill="#2196f3" style="fill: var(--color1, #2196f3)"
        d="M14.903 14.949h1.097v4.8h-1.097v-4.8zM19.2 17.097h1.051v2.651h-1.051v-2.651zM10.651 18.697h1.097v1.051h-1.097v-1.006zM7.451 18.149h1.097v1.6h-1.097v-1.6z">
      </path>
      <path fill="#212121" style="fill: var(--color3, #212121)"
        d="M1.6 28.297h25.6c0.869 0 1.6-0.731 1.6-1.6v-2.149c0-0.914-0.731-1.6-1.6-1.6h-0.549v-13.257l3.017-2.88c0.213 0.112 0.465 0.178 0.733 0.178 0.884 0 1.6-0.716 1.6-1.6s-0.716-1.6-1.6-1.6c-0.884 0-1.6 0.716-1.6 1.6 0 0.234 0.050 0.455 0.14 0.655l-0.004-0.010-2.286 2.149v-1.234c0-0.869-0.731-1.6-1.6-1.6h-21.303c-0.914 0-1.6 0.731-1.6 1.6v16h-0.549c-0.914 0-1.6 0.731-1.6 1.6v2.149c0 0.914 0.731 1.6 1.6 1.6zM30.4 4.846c0.047-0.014 0.101-0.023 0.157-0.023 0.303 0 0.549 0.246 0.549 0.549s-0.246 0.549-0.549 0.549c-0.056 0-0.11-0.008-0.161-0.024l0.004 0.001c-0.229-0.070-0.392-0.279-0.392-0.526s0.163-0.456 0.388-0.525l0.004-0.001zM3.2 6.949c0-0.274 0.229-0.503 0.549-0.503h21.303c0.274 0 0.549 0.229 0.549 0.503v2.286l-1.097 1.006v-2.194c0-0.32-0.229-0.549-0.503-0.549h-19.2c-0.274 0-0.549 0.229-0.549 0.549v13.303c0 0.32 0.274 0.549 0.549 0.549h19.2c0.274 0 0.503-0.229 0.503-0.549v-9.646l1.097-1.006v12.251h-22.4v-16zM8 13.897c-0.007-0-0.015-0-0.022-0-0.884 0-1.6 0.716-1.6 1.6s0.716 1.6 1.6 1.6c0.436 0 0.831-0.174 1.12-0.457l-0 0 1.829 0.914c0.229 0.137 0.503 0.091 0.686-0.091l3.931-4.434 3.84 2.88c0.229 0.183 0.503 0.137 0.686 0l3.383-3.2v8.137h-18.103v-12.297h18.103v2.697l-3.749 3.566-3.931-2.926c-0.229-0.183-0.549-0.137-0.731 0.046l-3.977 4.526-1.463-0.777v-0.137c0-0.914-0.686-1.6-1.554-1.6zM8.549 15.497c0 0.303-0.246 0.549-0.549 0.549s-0.549-0.246-0.549-0.549v0c0-0.303 0.246-0.549 0.549-0.549s0.549 0.246 0.549 0.549v0zM11.749 24.046h5.303v0.503c0 0.32-0.229 0.549-0.549 0.549h-4.251c-0.274 0-0.503-0.229-0.503-0.549v-0.503zM1.051 24.549c0-0.274 0.274-0.503 0.549-0.503h9.051v0.503c0 0.914 0.731 1.6 1.6 1.6h4.251c0.914 0 1.6-0.686 1.6-1.6v-0.503h9.097c0.274 0 0.503 0.229 0.503 0.503v2.149c0 0.274-0.229 0.549-0.503 0.549h-25.6c-0.274 0-0.549-0.274-0.549-0.549v-2.149z">
      </path>
    </symbol>
    <symbol id="icon-clock" viewBox="0 0 32 32">
      <path fill="#212121" style="fill: var(--color3, #212121)"
        d="M31.314 15.314c0-0.005 0-0.010 0-0.016 0-8.458-6.856-15.314-15.314-15.314s-15.314 6.856-15.314 15.314c0 6.859 4.51 12.665 10.726 14.615l0.108 0.029c0.137 0 0.229-0.046 0.366-0.137 0.137-0.046 0.229-0.183 0.274-0.366l3.84-12.206c1.058-0.003 1.915-0.861 1.915-1.92 0-1.060-0.86-1.92-1.92-1.92-0.297 0-0.578 0.067-0.829 0.188l0.012-0.005-5.12-5.12c-0.117-0.117-0.279-0.189-0.457-0.189-0.357 0-0.646 0.289-0.646 0.646 0 0.179 0.072 0.34 0.189 0.457l5.12 5.12c-0.114 0.235-0.18 0.511-0.18 0.802 0 0.602 0.284 1.137 0.725 1.48l0.004 0.003-3.657 11.703c-5.431-2.020-9.229-7.159-9.229-13.186 0-7.751 6.283-14.034 14.034-14.034s14.034 6.283 14.034 14.034c0 5.684-3.379 10.578-8.237 12.785l-0.088 0.036-0.366-1.874c-0.057-0.3-0.317-0.524-0.63-0.524-0.162 0-0.31 0.060-0.423 0.159l0.001-0.001-3.84 3.429c-0.137 0.118-0.223 0.292-0.223 0.485 0 0.286 0.188 0.529 0.447 0.61l0.005 0.001 4.891 1.6c0.058 0.019 0.125 0.030 0.195 0.030 0.353 0 0.64-0.287 0.64-0.64 0-0.043-0.004-0.085-0.012-0.126l0.001 0.004-0.366-1.829c5.527-2.379 9.326-7.778 9.326-14.065 0-0.005 0-0.011 0-0.016v0.001zM16 14.629c0.353 0 0.64 0.287 0.64 0.64s-0.287 0.64-0.64 0.64v0c-0.353 0-0.64-0.287-0.64-0.64s0.287-0.64 0.64-0.64v0zM18.103 29.486l2.194-1.966 0.594 2.834-2.789-0.914z">
      </path>
      <path fill="#2196f3" style="fill: var(--color1, #2196f3)"
        d="M15.36 3.2v1.28c0 0.353 0.287 0.64 0.64 0.64s0.64-0.287 0.64-0.64v-1.28c0-0.353-0.287-0.64-0.64-0.64s-0.64 0.287-0.64 0.64v0zM3.886 14.629c-0.366 0-0.663 0.297-0.663 0.663s0.297 0.663 0.663 0.663h1.28c0.353 0 0.64-0.287 0.64-0.64s-0.287-0.64-0.64-0.64h-1.28zM28.114 15.954c0.353 0 0.64-0.287 0.64-0.64s-0.287-0.64-0.64-0.64h-1.28c-0.353 0-0.64 0.287-0.64 0.64s0.287 0.64 0.64 0.64h1.28z">
      </path>
    </symbol>
    <symbol id="icon-antenna" viewBox="0 0 32 32">
      <path fill="#212121" style="fill: var(--color3, #212121)"
        d="M30.766 22.080l-8.457-8.503 0.96-4.571c0.229 0.046 0.457 0.137 0.777 0.137 0.007 0 0.016 0 0.025 0 1.187 0 2.149-0.962 2.149-2.149s-0.962-2.149-2.149-2.149c-1.187 0-2.149 0.962-2.149 2.149 0 0.245 0.041 0.481 0.117 0.701l-0.005-0.015-4.983 0.594-8.091-8.137c-0.091-0.091-0.229-0.137-0.366-0.137s-0.274 0.046-0.366 0.137l-1.509 1.509c-0.229 0.229-0.229 0.549 0 0.777l0.823 0.777c-1.129 2.053-1.794 4.499-1.794 7.1 0 4.161 1.7 7.925 4.444 10.635l0.002 0.002-0.046 0.549v6.217h-6.4c-0.014-0-0.030-0-0.046-0-1.464 0-2.651 1.187-2.651 2.651 0 0 0 0 0 0v-0 1.051c0 0.32 0.274 0.549 0.549 0.549h24.549c0.274 0 0.503-0.229 0.503-0.549v-1.051c0-1.463-1.189-2.651-2.651-2.651h-6.4v-2.743c0.899 0.191 1.932 0.3 2.991 0.3 2.586 0 5.020-0.653 7.146-1.803l-0.080 0.039 0.869 0.823c0.091 0.091 0.229 0.137 0.366 0.137s0.274-0.046 0.366-0.137l1.509-1.509c0.229-0.229 0.229-0.549 0-0.777zM23.314 6.217c0.186-0.169 0.434-0.272 0.706-0.272 0.581 0 1.051 0.471 1.051 1.051 0 0.555-0.431 1.010-0.976 1.049l-0.003 0c-0.021 0.002-0.046 0.002-0.072 0.002-0.581 0-1.051-0.471-1.051-1.051 0-0.309 0.133-0.586 0.345-0.779l0.001-0.001zM22.080 9.737l-0.594 2.926-1.189-1.143 1.783-1.783zM21.486 8.823l-1.92 1.92-1.509-1.509 3.429-0.411zM24 28.8c0.914 0 1.6 0.731 1.6 1.6v0.549h-23.451v-0.549c0-0.914 0.686-1.6 1.6-1.6h20.251zM16.549 26.651v1.097h-5.349v-1.097h5.349zM11.2 25.6v-4.069c0-1.28 1.189-2.331 2.651-2.331 1.509 0 2.697 1.051 2.697 2.331v4.069h-5.349zM17.6 23.909v-2.423c0-1.829-1.691-3.383-3.749-3.383-1.326 0-2.56 0.64-3.246 1.783-2.369-2.481-3.827-5.85-3.827-9.559 0-2.319 0.57-4.505 1.578-6.426l-0.036 0.076 18.606 18.743c-1.816 0.94-3.965 1.492-6.242 1.492-1.093 0-2.157-0.127-3.177-0.367l0.094 0.019zM28.891 23.223l-0.731-0.823-19.566-19.657-0.823-0.686 0.777-0.777 7.909 8 13.257 13.12-0.777 0.777z">
      </path>
      <path fill="#2196f3" style="fill: var(--color1, #2196f3)"
        d="M13.897 20.251c-0.884 0-1.6 0.716-1.6 1.6s0.716 1.6 1.6 1.6v0c0.884 0 1.6-0.716 1.6-1.6s-0.716-1.6-1.6-1.6v0zM14.263 22.263c-0.101 0.112-0.247 0.183-0.409 0.183-0.303 0-0.549-0.246-0.549-0.549s0.244-0.547 0.546-0.549h0c0.001 0 0.002 0 0.003 0 0.303 0 0.549 0.246 0.549 0.549 0 0.141-0.053 0.269-0.14 0.366l0-0z">
      </path>
    </symbol>
    <symbol id="icon-envelope" viewBox="0 0 16 12">
      <path
        d="M14.5 0H1.50001C0.672854 0 0 0.672853 0 1.50001V10.5C0 11.3271 0.672854 12 1.50001 12H14.5C15.3271 12 16 11.3271 16 10.5V1.50001C16 0.672853 15.3271 0 14.5 0ZM14.5 0.999994C14.5679 0.999994 14.6325 1.01409 14.6916 1.0387L8 6.83838L1.30833 1.0387C1.36742 1.01412 1.43204 0.999994 1.49998 0.999994H14.5ZM14.5 11H1.50001C1.22414 11 0.999996 10.7759 0.999996 10.5V2.09521L7.67236 7.87792C7.76661 7.95944 7.8833 7.99999 8 7.99999C8.1167 7.99999 8.23339 7.95948 8.32764 7.87792L15 2.09521V10.5C15 10.7759 14.7759 11 14.5 11Z">
      </path>
    </symbol>
    <symbol id="icon-smartphone" viewBox="0 0 10 16">
      <path
        d="M8.5 0H1.5C0.672848 0 0 0.672848 0 1.5V14.5C0 15.3272 0.672848 16 1.5 16H8.5C9.32715 16 10 15.3272 10 14.5V1.5C10 0.672848 9.32715 0 8.5 0ZM1.5 1H8.5C8.77588 1 9 1.22412 9 1.5V12H1V1.5C1 1.22412 1.22412 1 1.5 1ZM8.5 15H1.5C1.22412 15 1 14.7759 1 14.5V13H9V14.5C9 14.7759 8.77588 15 8.5 15Z" />
      <path
        d="M2.35355 13.7389C2.54882 13.9213 2.54882 14.2169 2.35355 14.3992C2.15828 14.5816 1.84172 14.5816 1.64645 14.3992C1.45118 14.2169 1.45118 13.9213 1.64645 13.7389C1.84172 13.5566 2.15828 13.5566 2.35355 13.7389Z">
      </path>
    </symbol>
  </defs>
</svg>